<?xml version="1.0" encoding="utf-8"?>
<!-- Generator: Adobe Illustrator 17.0.0, SVG Export Plug-In . SVG Version: 6.00 Build 0)  -->
<!DOCTYPE svg PUBLIC "-//W3C//DTD SVG 1.1//EN" "http://www.w3.org/Graphics/SVG/1.1/DTD/svg11.dtd">
<svg version="1.1" id="Layer_1" xmlns="http://www.w3.org/2000/svg" xmlns:xlink="http://www.w3.org/1999/xlink" x="0px" y="0px"
	 width="68px" height="62px" viewBox="0 0 68 62" enable-background="new 0 0 68 62" xml:space="preserve">
<g>
	<path fill="#231F20" d="M15.151,19.986c0.15,0.904,0.499,1.476,0.843,1.837c0.819,5.459,5.382,10.524,9.554,10.524
		c4.862,0,9.29-5.483,10.142-10.511c0.353-0.356,0.706-0.933,0.86-1.849c0.275-1.022,0.633-2.798,0.008-3.633
		c-0.033-0.041-0.069-0.085-0.101-0.117c0.588-2.145,1.33-6.581-1.327-9.603c-0.236-0.3-1.728-2.081-4.91-3.021L28.7,3.089
		c-2.506-0.774-4.079-0.948-4.148-0.957c-0.114-0.008-0.231,0-0.341,0.028c-0.085,0.024-0.385,0.105-0.616,0.072
		c-0.601-0.085-1.501,0.224-1.659,0.284c-0.207,0.085-5.061,2.027-6.533,6.549c-0.138,0.365-0.726,2.287,0.057,6.999
		c-0.117,0.081-0.224,0.179-0.312,0.296C14.515,17.187,14.871,18.963,15.151,19.986z"/>
	<path fill="#231F20" d="M34.568,54.391c-0.897-0.503-1.869-0.986-2.907-1.444c-0.503-0.224-1.014-0.434-1.521-0.633
		c-0.398-0.15-0.868-0.344-1.196-0.43l-4.81-1.298l8.999-18.322l3.857,2.433c0.816,0.511,1.415,0.945,2.072,1.427l0.138,0.101
		c0.652,0.482,1.294,0.977,1.922,1.489c1.367,1.103,2.575,2.182,3.698,3.297c0.085,0.085,0.167,0.162,0.251,0.248
		c0.377-0.418,0.747-0.79,1.115-1.193c-0.47-1.399-1.043-2.693-1.74-3.731c0,0-0.99-1.351-3.337-2.251c0,0-0.198-0.06-0.503-0.162
		c-2.088-0.977-4.072-1.606-4.072-1.606c-0.425-0.155-0.799-0.304-1.136-0.451c-1.42-0.702-2.599-1.492-2.843-2.239
		c0,0,0.819,7.929-6.111,8.115l-0.965-0.045c-6.282-0.559-6.7-8.086-6.7-8.086c-0.657,2.064-8.557,4.465-8.557,4.465
		c-2.348,0.9-3.342,2.255-3.342,2.255C3.41,41.481,3,52.941,3,52.941c0.045,2.62,1.176,2.891,1.176,2.891
		c7.985,3.564,20.511,4.193,20.511,4.193c0.677,0.016,1.306-0.021,1.934-0.057l0.016,0.065c0,0,6.115-0.312,12.527-1.716
		l-0.781-1.023C37.747,56.455,36.324,55.372,34.568,54.391z"/>
	<path fill="#231F20" d="M32.289,29.966c0.085-0.11,0.179-0.219,0.268-0.341c-0.021-0.072-0.024-0.11-0.024-0.11
		C32.455,29.674,32.366,29.808,32.289,29.966z"/>
	<path fill="#231F20" d="M18.817,29.601l-0.021-0.085l-0.016,0.089c0.004-0.016,0.021-0.033,0.024-0.048
		C18.809,29.56,18.814,29.577,18.817,29.601z"/>
	<path fill="#231F20" d="M59.296,33.279c-2.275,1.606-4.396,3.423-6.416,5.333c-2.024,1.922-3.941,3.946-5.786,6.034
		c-0.685,0.778-1.351,1.566-2.012,2.356c-0.008-0.012-0.016-0.024-0.021-0.036c-0.974-1.298-2.027-2.454-3.122-3.537
		c-1.095-1.079-2.23-2.076-3.399-3.025c-0.588-0.47-1.18-0.933-1.785-1.387c-0.628-0.454-1.18-0.864-1.95-1.351l-4.793,9.753
		c0.437,0.117,1.074,0.365,1.614,0.576c0.572,0.219,1.131,0.454,1.692,0.702c1.119,0.494,2.21,1.034,3.253,1.614
		c2.06,1.151,3.979,2.554,5.073,3.986l3.686,4.834l2.12-4.599c1.067-2.303,2.344-4.712,3.654-7.008
		c1.322-2.311,2.733-4.578,4.262-6.764c1.528-2.186,3.167-4.299,5-6.245c1.833-1.934,3.857-3.735,6.27-5.012
		C64.017,30.282,61.568,31.689,59.296,33.279z"/>
</g>
</svg>
