<?xml version="1.0" encoding="utf-8"?>
<!-- Generator: Adobe Illustrator 17.0.0, SVG Export Plug-In . SVG Version: 6.00 Build 0)  -->
<!DOCTYPE svg PUBLIC "-//W3C//DTD SVG 1.1//EN" "http://www.w3.org/Graphics/SVG/1.1/DTD/svg11.dtd">
<svg version="1.1" id="Layer_1" xmlns="http://www.w3.org/2000/svg" xmlns:xlink="http://www.w3.org/1999/xlink" x="0px" y="0px"
	 width="21px" height="18px" viewBox="0 0 21 18" enable-background="new 0 0 21 18" xml:space="preserve">
<g>
	<path fill="#231F20" d="M1.716,3.227c0.11-0.282,0.191-0.579,0.334-0.843c0.603-1.113,1.551-1.701,2.815-1.706
		c3.388-0.014,6.776-0.011,10.164-0.002c1.125,0.003,2.011,0.488,2.656,1.415c0.124,0.178,0.127,0.282-0.086,0.392
		c-0.415,0.213-0.82,0.448-1.223,0.685c-0.141,0.083-0.222,0.09-0.327-0.06c-0.277-0.396-0.682-0.535-1.154-0.534
		c-3.289,0.003-6.579,0.011-9.868-0.006C4.268,2.563,3.604,3.06,3.614,3.99c0.034,3.301,0.013,6.603,0.013,9.905
		c0,0.879,0.487,1.369,1.374,1.369c3.302,0.002,6.604,0.002,9.905,0c0.875-0.001,1.374-0.505,1.375-1.376
		c0.001-1.503,0.004-3.006-0.004-4.509c-0.001-0.212,0.049-0.363,0.209-0.513c0.553-0.519,1.09-1.055,1.64-1.592
		c0.111,0.137,0.065,0.264,0.065,0.379c0.003,2.107,0.003,4.213,0.002,6.32c-0.001,1.791-1.337,3.178-3.135,3.188
		c-3.4,0.019-6.801,0.013-10.201,0.002c-1.423-0.005-2.553-0.851-3.008-2.191c-0.033-0.096-0.009-0.228-0.133-0.285
		C1.716,10.867,1.716,7.047,1.716,3.227z"/>
	<path fill="#231F20" d="M6.107,6.65c0.137-0.077,0.236,0.03,0.341,0.078c1.146,0.535,2.293,1.07,3.434,1.618
		c0.218,0.105,0.384,0.108,0.603-0.016c3.153-1.794,6.311-3.577,9.47-5.359c0.133-0.075,0.252-0.197,0.492-0.186
		c-0.321,0.322-0.603,0.613-0.894,0.896c-1.846,1.794-3.694,3.586-5.541,5.377c-1.211,1.174-2.424,2.346-3.634,3.523
		c-0.121,0.118-0.193,0.189-0.324-0.008c-1.305-1.955-2.619-3.904-3.93-5.855C6.113,6.7,6.113,6.673,6.107,6.65z"/>
</g>
</svg>
