<?xml version="1.0" encoding="utf-8"?>
<!-- Generator: Adobe Illustrator 17.0.0, SVG Export Plug-In . SVG Version: 6.00 Build 0)  -->
<!DOCTYPE svg PUBLIC "-//W3C//DTD SVG 1.1//EN" "http://www.w3.org/Graphics/SVG/1.1/DTD/svg11.dtd">
<svg version="1.1" id="Layer_1" xmlns="http://www.w3.org/2000/svg" xmlns:xlink="http://www.w3.org/1999/xlink" x="0px" y="0px"
	 width="65px" height="52px" viewBox="0 0 65 52" enable-background="new 0 0 65 52" xml:space="preserve">
<g>
	
		<radialGradient id="SVGID_1_" cx="252.8265" cy="-2801.0439" r="17.0902" gradientTransform="matrix(1 0 0 -0.0962 -221.5 -222.4566)" gradientUnits="userSpaceOnUse">
		<stop  offset="0" style="stop-color:#211915"/>
		<stop  offset="1" style="stop-color:#FFFFFF"/>
	</radialGradient>
	<ellipse opacity="0.4" fill="url(#SVGID_1_)" enable-background="new    " cx="31.327" cy="47.004" rx="17.388" ry="1.996"/>
	<g>
		<g>
			<path fill="#181819" d="M17.732,22.213h-1.731v-1.461h0.615c0.339,0,0.615-0.277,0.615-0.615v-0.003v-3.226v-0.003
				c0-0.338-0.276-0.615-0.615-0.615h-0.615v-1.462h1.732V14.21h-2.04c-0.17,0-0.308,0.138-0.308,0.309v1.769H14.77
				c-0.34,0-0.615,0.277-0.615,0.615v0.003v3.226v0.003c0,0.338,0.275,0.615,0.615,0.615h0.615v1.769
				c0,0.17,0.138,0.308,0.308,0.308h2.04L17.732,22.213z"/>
			<path fill="#181819" d="M45.141,22.829h2.04c0.17,0,0.308-0.138,0.308-0.308v-1.769h0.615c0.34,0,0.615-0.277,0.615-0.615v-0.003
				v-3.226v-0.003c0-0.338-0.275-0.615-0.615-0.615h-0.614V14.52c0-0.17-0.138-0.309-0.308-0.309h-2.04v0.617h1.732v1.461h-0.615
				c-0.339,0-0.615,0.277-0.615,0.615v0.003v3.226v0.003c0,0.338,0.276,0.615,0.615,0.615h0.615v1.461h-1.732L45.141,22.829
				L45.141,22.829z"/>
		</g>
		<path fill="#181819" d="M47.844,38.064L47.844,38.064V31.44c0-1.424-1.154-2.576-2.577-2.576h-0.674V4.681
			c0-0.216-0.108-0.418-0.289-0.538l-1.636-1.081C42.24,2.779,41.669,3.087,41.669,3.6v7.767l-0.487-1.315
			c-0.656-1.769-2.343-2.942-4.228-2.942H25.691c-1.897,0-3.592,1.188-4.239,2.971l-0.467,1.286V3.599
			c0-0.513-0.571-0.82-0.999-0.538l-1.637,1.082c-0.18,0.119-0.289,0.321-0.289,0.538v24.183h-0.674
			c-1.424,0-2.577,1.154-2.577,2.576v6.624L47.844,38.064z M21.838,14.954h18.977v6.348H21.838V14.954z M21.397,36.26h-2.201
			c-0.672,0-1.217-0.545-1.217-1.217v-0.031c0-0.673,0.545-1.217,1.217-1.217h2.201c0.672,0,1.217,0.545,1.217,1.217v0.031
			C22.615,35.716,22.07,36.26,21.397,36.26z M35.707,36.62h-8.759c-0.711,0-1.288-0.577-1.288-1.288v-8.164
			c0-0.711,0.577-1.288,1.288-1.288h8.759c0.711,0,1.288,0.577,1.288,1.288v8.164C36.995,36.043,36.418,36.62,35.707,36.62z
			 M43.458,36.26h-2.201c-0.672,0-1.218-0.545-1.218-1.217v-0.031c0-0.673,0.545-1.217,1.218-1.217h2.201
			c0.672,0,1.217,0.545,1.217,1.217v0.031C44.675,35.716,44.13,36.26,43.458,36.26z M35.511,30.595h-8.389
			c-0.352,0-0.637-0.285-0.637-0.638v-0.013c0-0.352,0.285-0.637,0.637-0.637h8.389c0.353,0,0.638,0.285,0.638,0.637v0.013
			C36.149,30.309,35.863,30.595,35.511,30.595z M35.511,28.017h-8.389c-0.352,0-0.637-0.285-0.637-0.637v-0.013
			c0-0.352,0.285-0.638,0.637-0.638h8.389c0.353,0,0.638,0.286,0.638,0.638v0.013C36.149,27.732,35.863,28.017,35.511,28.017z
			 M35.511,35.748h-8.389c-0.352,0-0.637-0.285-0.637-0.637v-0.013c0-0.352,0.285-0.638,0.637-0.638h8.389
			c0.353,0,0.638,0.286,0.638,0.638v0.013C36.149,35.463,35.863,35.748,35.511,35.748z M35.511,33.171h-8.389
			c-0.352,0-0.637-0.285-0.637-0.638V32.52c0-0.353,0.285-0.638,0.637-0.638h8.389c0.353,0,0.638,0.285,0.638,0.638v0.013
			C36.149,32.886,35.863,33.171,35.511,33.171z"/>
		<path fill="#181819" d="M14.809,38.611h-1.097c-0.355,0-0.644,0.289-0.644,0.644v3.562c0,0.356,0.289,0.644,0.644,0.644h35.23
			c0.355,0,0.644-0.289,0.644-0.644v-3.561c0-0.356-0.289-0.644-0.644-0.644h-1.098l0,0L14.809,38.611L14.809,38.611z"/>
		<g>
			<path fill="#181819" d="M16.491,45.716c0,0.711,0.577,1.288,1.288,1.288h3.415c0.711,0,1.288-0.577,1.288-1.288v-1.707h-5.991
				V45.716z"/>
			<path fill="#181819" d="M40.171,44.008v1.707c0,0.711,0.577,1.288,1.288,1.288h3.414c0.711,0,1.288-0.577,1.288-1.288v-1.707
				H40.171z"/>
		</g>
	</g>
</g>
</svg>
