<?xml version="1.0" encoding="utf-8"?>
<!-- Generator: Adobe Illustrator 17.0.0, SVG Export Plug-In . SVG Version: 6.00 Build 0)  -->
<!DOCTYPE svg PUBLIC "-//W3C//DTD SVG 1.1//EN" "http://www.w3.org/Graphics/SVG/1.1/DTD/svg11.dtd">
<svg version="1.1" id="Layer_1" xmlns="http://www.w3.org/2000/svg" xmlns:xlink="http://www.w3.org/1999/xlink" x="0px" y="0px"
	 width="46px" height="65px" viewBox="0 0 46 65" enable-background="new 0 0 46 65" xml:space="preserve">
<g>
	<g>
		<g>
			<path fill="#7D8993" d="M5.796,23.5h3.495l0,0h27.321l0,0h3.647c2.118,0,4.24,0.818,4.24,2.936v1.732l-0.086-0.361
				c0-5.248-3.032-6.307-5.029-6.307H36.9l0,0H9.009l0,0H6.85c-1.925,0-4.623,1.289-4.814,5.383C2.384,25.124,3.935,23.5,5.796,23.5
				z"/>
			<path fill="#5D5E69" d="M44.5,28.168v-1.732c0-2.118-2.122-2.936-4.24-2.936H36.5v2h-27v-2H5.796
				c-1.861,0-3.642,0.876-3.991,2.635C1.757,26.378,1.5,26.179,1.5,26.436v15.893c0,0.944,0.573,2.343,1.139,3.012
				c-0.096-0.12,0.045,0.16-0.037,0.16h6.421l-0.534,2.153L6.868,53.5h13.726h5.046h13.662h0.065l-1.621-5.847L37.212,45.5h6.255
				c0.395-1,1.032-2.396,1.032-3.171V28.168z M36.137,41.5H25.641h-5.046H10.098L9.5,43.518V33.5h27v10.018L36.137,41.5z"/>
			<path fill="#EAE5E5" d="M37.746,46.5h2.63c1.377,0,2.58-1,3.257-1h-0.165h-6.255L37.746,46.5z"/>
			<path fill="#EAE5E5" d="M9.023,45.5H2.602c0.082,0,0.171-0.152,0.267-0.032c0.702,0.877,1.779,1.032,2.99,1.032h2.63L9.023,45.5z
				"/>
			<polygon fill="#343643" points="36.5,21.5 36.5,20.005 36.5,10.5 9.5,10.5 9.5,20.005 9.5,21.5 			"/>
			<polygon fill="#343643" points="9.5,23.5 9.5,22.601 9.5,25.5 36.5,25.5 36.5,22.601 36.5,23.5 			"/>
			<polygon fill="#343643" points="36.5,33.5 9.5,33.5 9.5,43.518 10.098,41.5 20.595,41.5 25.641,41.5 36.137,41.5 36.5,43.518 			
				"/>
			<polygon fill="#7D8993" points="20.595,53.5 6.868,53.5 6.57,53.5 6.57,53.5 20.595,53.5 25.641,53.5 38.836,53.5 38.836,53.5 
				25.641,53.5 			"/>
		</g>
		<g>
			<defs>
				<rect id="SVGID_1_" x="2.5" y="41.5" width="37" height="16"/>
			</defs>
			<clipPath id="SVGID_2_">
				<use xlink:href="#SVGID_1_"  overflow="visible"/>
			</clipPath>
			<g clip-path="url(#SVGID_2_)">
				<g>
					<path fill="#EAE5E5" d="M11.91,39.21c0.151-0.689,1.141-1.296,2.291-1.296c6.661,0,9.991,0,16.652,0
						c1.15,0,2.358,0.607,2.502,1.296c1.148,5.486,1.722,8.23,2.869,13.715c0.144,0.689-1.181,1.244-2.714,1.244
						c-8.881,0-13.322,0-22.203,0c-0.982-0.497-1.462-0.746-2.403-1.244C10.106,47.44,10.708,44.696,11.91,39.21z"/>
					<path opacity="0.7" fill="#B0ACAC" d="M11.322,54.083c0.23-0.543,0.344-0.815,0.569-1.358c-1.191,0.08-1.789,0.12-2.987,0.2
						C9.852,53.389,10.336,53.62,11.322,54.083z"/>
					<g>
						<path fill="none" stroke="#FFFFFF" stroke-width="3.0468" stroke-miterlimit="10" d="M32.756,50.622
							c-5.756,0-8.633,0-14.389,0"/>
						<path fill="none" stroke="#FFFFFF" stroke-width="3.0468" stroke-miterlimit="10" d="M32.445,48.687
							c-7.888,0-11.832,0-19.72,0"/>
						<path fill="none" stroke="#FFFFFF" stroke-width="3.0468" stroke-miterlimit="10" d="M32.155,46.881
							c-7.649,0-11.473,0-19.122,0"/>
						<path fill="none" stroke="#FFFFFF" stroke-width="3.0468" stroke-miterlimit="10" d="M31.865,45.075
							c-7.41,0-11.114,0-18.524,0"/>
						<path fill="none" stroke="#FFFFFF" stroke-width="3.0468" stroke-miterlimit="10" d="M31.575,43.268
							c-7.17,0-10.755,0-17.925,0"/>
						<path fill="none" stroke="#FFFFFF" stroke-width="3.0468" stroke-miterlimit="10" d="M18.426,40.559c-1.726,0-2.588,0-4.314,0
							"/>
					</g>
				</g>
			</g>
		</g>
		<g>
			<defs>
				<rect id="SVGID_3_" x="5.5" y="-1.5" width="32" height="23"/>
			</defs>
			<clipPath id="SVGID_4_">
				<use xlink:href="#SVGID_3_"  overflow="visible"/>
			</clipPath>
			<path clip-path="url(#SVGID_4_)" fill="#EAE5E5" d="M32.01,7.023L32.692,7.5h-0.359h-18.47h-0.359l0.065-0.477
				C12.419,7.206,11.5,7.657,11.5,8.826v25.889c0,1.3,0.705,3.785,2.004,3.785h0.359h18.47h0.359c1.3,0,0.808-2.485,0.808-3.785
				V8.826C33.5,7.657,33.166,7.206,32.01,7.023z"/>
		</g>
	</g>
	<circle fill="#EAE5E5" cx="38.021" cy="27.74" r="0.673"/>
	<circle fill="#7D8993" cx="40.242" cy="27.74" r="0.673"/>
</g>
</svg>
