<?xml version="1.0" encoding="utf-8"?>
<!-- Generator: Adobe Illustrator 17.0.0, SVG Export Plug-In . SVG Version: 6.00 Build 0)  -->
<!DOCTYPE svg PUBLIC "-//W3C//DTD SVG 1.1//EN" "http://www.w3.org/Graphics/SVG/1.1/DTD/svg11.dtd">
<svg version="1.1" id="Layer_1" xmlns="http://www.w3.org/2000/svg" xmlns:xlink="http://www.w3.org/1999/xlink" x="0px" y="0px"
	 width="78px" height="45px" viewBox="0 0 78 45" enable-background="new 0 0 78 45" xml:space="preserve">
<g>
	<path fill="#181819" d="M29.7,1.893C27.263,1.557,10.688,6.811,8.89,8.703c-1.797,1.892-5.676,8.891-4.257,9.269
		c0.418,0.111,2.269-0.228,4.73-0.755c0.63-0.135-0.129-1.833,0.567-1.988c2.056-0.458,7.21-1.598,9.364-2.081
		c0.663-0.148-0.129,1.871,0.5,1.734c3.111-0.677,5.667-1.168,6.405-1.072c2.176,0.284,13.432,4.635,13.432,4.635v3.973
		c0,0-5.675-2.554-8.892-0.946c-3.216,1.608-2.743,3.783-4.351,3.878c-1.608,0.095-22.891,2.554-22.891,2.554v9.175l29.417-1.135
		l0.473,2.176l-29.89,0.378c0,0,0,1.135,0.946,1.419c0.946,0.284,5.959,0,5.959,0s0.568,2.081,1.986,2.365
		c1.419,0.284,6.338,0,6.338,0s1.608-1.135,2.081-2.365l14.945-0.095c0,0-1.892-5.865-0.378-9.081
		c1.513-3.216,3.027-6.243,7.662-3.973V12.108C43.037,12.108,32.443,2.271,29.7,1.893z M6.69,35.666
		c-1.045,0-1.892-0.847-1.892-1.892c0-1.045,0.847-1.892,1.892-1.892c1.045,0,1.892,0.847,1.892,1.892
		C8.582,34.819,7.735,35.666,6.69,35.666z M23.93,34.904c-1.202,0-2.176-0.974-2.176-2.176c0-1.201,0.974-2.176,2.176-2.176
		c1.202,0,2.176,0.974,2.176,2.176C26.105,33.93,25.132,34.904,23.93,34.904z"/>
	<path fill="#181819" d="M40.408,28.309c-2.078,0-3.763,3.156-3.763,7.05c0,2.041,0.466,3.874,1.206,5.161h-0.005l-8.337,0.438
		c0,0,0.662,1.294,1.703,1.451c1.04,0.157,9.196,0,9.196,0c2.078,0,3.763-3.156,3.763-7.05
		C44.171,31.465,42.486,28.309,40.408,28.309z M42.744,36.585c-0.05,0.155-0.099,0.308-0.148,0.459
		c-0.103,0.297-0.271,0.556-0.398,0.81c-0.121,0.26-0.318,0.454-0.46,0.653c-0.15,0.195-0.284,0.374-0.44,0.501
		c-0.144,0.137-0.276,0.25-0.382,0.343c-0.214,0.185-0.34,0.283-0.34,0.283s0.077-0.146,0.217-0.387
		c0.071-0.12,0.155-0.266,0.257-0.426c0.111-0.155,0.19-0.358,0.294-0.564c0.05-0.103,0.103-0.211,0.157-0.323
		c0.058-0.109,0.116-0.222,0.152-0.348c0.079-0.248,0.19-0.499,0.263-0.767c0.05-0.275,0.143-0.549,0.167-0.838
		c0.021-0.289,0.077-0.578,0.049-0.873c-0.005-0.146,0.004-0.294-0.012-0.44c-0.019-0.146-0.038-0.291-0.057-0.435
		c-0.033-0.289-0.113-0.569-0.175-0.842c-0.096-0.264-0.155-0.535-0.263-0.774c-0.092-0.245-0.194-0.473-0.291-0.684
		c-0.2-0.418-0.387-0.765-0.53-1.003c-0.138-0.242-0.229-0.376-0.229-0.376s0.138,0.086,0.352,0.273
		c0.109,0.091,0.232,0.211,0.371,0.354c0.133,0.147,0.288,0.311,0.432,0.51c0.148,0.196,0.306,0.413,0.439,0.664
		c0.152,0.241,0.27,0.52,0.394,0.807c0.057,0.146,0.099,0.3,0.15,0.454c0.051,0.154,0.102,0.311,0.123,0.477
		c0.028,0.164,0.056,0.33,0.085,0.496c0.02,0.167,0.015,0.338,0.023,0.508c0.024,0.341-0.036,0.678-0.083,1.009
		C42.849,36.273,42.795,36.43,42.744,36.585z"/>
	<path fill="#181819" d="M51.553,32.941c-1.407,0-2.549,2.138-2.549,4.776c0,1.383,0.356,2.168,0.857,3.04h-0.003l-5.688,0.001
		c0,0,0.814,1.173,1.519,1.279c0.705,0.106,5.904,0,5.904,0c1.408,0,2.509-1.682,2.509-4.32
		C54.102,35.079,52.961,32.941,51.553,32.941z M53.135,38.547c-0.034,0.105-0.067,0.209-0.1,0.311
		c-0.07,0.201-0.183,0.376-0.269,0.549c-0.082,0.176-0.215,0.307-0.311,0.442c-0.102,0.132-0.193,0.254-0.299,0.34
		c-0.098,0.092-0.186,0.169-0.258,0.232c-0.145,0.125-0.231,0.191-0.231,0.191s0.052-0.099,0.147-0.262
		c0.048-0.081,0.105-0.18,0.175-0.289c0.075-0.105,0.128-0.243,0.2-0.382c0.034-0.07,0.069-0.143,0.106-0.218
		c0.04-0.074,0.079-0.15,0.103-0.236c0.053-0.169,0.129-0.338,0.178-0.52c0.034-0.186,0.097-0.372,0.113-0.567
		c0.014-0.195,0.052-0.392,0.033-0.591c-0.004-0.099,0.002-0.199-0.008-0.298c-0.013-0.099-0.026-0.197-0.038-0.294
		c-0.023-0.196-0.077-0.385-0.119-0.571c-0.065-0.179-0.105-0.362-0.178-0.524c-0.063-0.166-0.131-0.32-0.197-0.463
		c-0.136-0.283-0.262-0.519-0.359-0.68c-0.093-0.164-0.155-0.255-0.155-0.255s0.094,0.058,0.238,0.185
		c0.074,0.062,0.157,0.143,0.252,0.24c0.089,0.099,0.195,0.211,0.292,0.346c0.1,0.133,0.207,0.28,0.297,0.45
		c0.104,0.163,0.183,0.352,0.267,0.547c0.039,0.098,0.068,0.203,0.102,0.307c0.035,0.104,0.069,0.21,0.083,0.323
		c0.019,0.112,0.038,0.224,0.057,0.336c0.014,0.113,0.01,0.229,0.016,0.344c0.017,0.231-0.025,0.459-0.056,0.683
		C53.207,38.336,53.17,38.442,53.135,38.547z"/>
	<path fill="#181819" d="M66.543,37.123c-0.825,0-1.496,1.254-1.496,2.802c0,0.811,0.209,1.272,0.503,1.784h-0.002l-3.338,0
		c0,0,0.478,0.688,0.892,0.751c0.413,0.063,3.464,0,3.464,0c0.826,0,1.472-0.987,1.472-2.534
		C68.039,38.378,67.369,37.123,66.543,37.123z M67.472,40.413c-0.02,0.062-0.04,0.122-0.059,0.182
		c-0.041,0.118-0.108,0.221-0.158,0.322c-0.048,0.103-0.126,0.18-0.183,0.26c-0.06,0.077-0.113,0.149-0.175,0.199
		c-0.058,0.054-0.11,0.099-0.152,0.136c-0.085,0.073-0.135,0.112-0.135,0.112s0.031-0.058,0.086-0.154
		c0.028-0.047,0.061-0.105,0.102-0.169c0.044-0.061,0.075-0.142,0.117-0.224c0.02-0.041,0.041-0.084,0.062-0.128
		c0.023-0.043,0.046-0.088,0.061-0.138c0.031-0.099,0.075-0.198,0.104-0.305c0.02-0.109,0.057-0.218,0.067-0.333
		c0.008-0.114,0.03-0.23,0.019-0.347c-0.002-0.058,0.002-0.117-0.005-0.175c-0.008-0.058-0.015-0.116-0.023-0.173
		c-0.014-0.115-0.045-0.226-0.07-0.335c-0.038-0.105-0.062-0.213-0.104-0.308c-0.037-0.097-0.077-0.188-0.116-0.272
		c-0.079-0.166-0.154-0.304-0.211-0.399c-0.055-0.096-0.091-0.15-0.091-0.15s0.055,0.034,0.14,0.108
		c0.044,0.036,0.093,0.084,0.148,0.141c0.052,0.058,0.115,0.124,0.172,0.203c0.058,0.078,0.121,0.164,0.174,0.264
		c0.061,0.096,0.107,0.207,0.157,0.321c0.023,0.058,0.04,0.119,0.06,0.18c0.02,0.061,0.041,0.124,0.049,0.19
		c0.011,0.065,0.022,0.131,0.033,0.197c0.008,0.066,0.006,0.135,0.01,0.202c0.01,0.135-0.015,0.269-0.033,0.401
		C67.513,40.288,67.492,40.351,67.472,40.413z"/>
	<path fill="#181819" d="M70.043,37.469c-0.772,0-1.399,1.173-1.399,2.621c0,0.759,0.195,1.19,0.471,1.669h-0.002h-1.225
		c0,0-0.128,0.526-0.836,0.718c0.386,0.059,3.014-0.016,3.014-0.016c0.772,0,1.377-0.923,1.377-2.371
		C71.443,38.643,70.815,37.469,70.043,37.469z M70.912,40.547c-0.019,0.058-0.037,0.114-0.055,0.17
		c-0.039,0.11-0.101,0.206-0.148,0.301c-0.045,0.097-0.118,0.169-0.171,0.243c-0.056,0.073-0.105,0.14-0.164,0.187
		c-0.054,0.051-0.102,0.093-0.142,0.127c-0.079,0.069-0.126,0.105-0.126,0.105s0.028-0.054,0.081-0.144
		c0.026-0.044,0.057-0.099,0.096-0.159c0.041-0.058,0.07-0.133,0.109-0.21c0.019-0.038,0.038-0.078,0.058-0.12
		c0.022-0.04,0.043-0.082,0.057-0.129c0.029-0.093,0.07-0.185,0.098-0.285c0.019-0.102,0.053-0.204,0.062-0.311
		c0.008-0.107,0.029-0.215,0.018-0.324c-0.002-0.054,0.001-0.11-0.005-0.164c-0.007-0.054-0.014-0.108-0.021-0.162
		c-0.013-0.107-0.042-0.211-0.065-0.313c-0.036-0.098-0.058-0.199-0.098-0.288c-0.035-0.091-0.072-0.176-0.109-0.254
		c-0.074-0.155-0.144-0.284-0.197-0.373c-0.051-0.09-0.085-0.14-0.085-0.14s0.051,0.032,0.131,0.101
		c0.04,0.034,0.087,0.079,0.138,0.132c0.049,0.054,0.107,0.116,0.161,0.19c0.054,0.073,0.113,0.154,0.163,0.247
		c0.057,0.09,0.1,0.193,0.146,0.3c0.022,0.054,0.037,0.112,0.056,0.169c0.019,0.057,0.038,0.115,0.046,0.177
		c0.01,0.061,0.021,0.123,0.031,0.185c0.008,0.062,0.006,0.126,0.009,0.189c0.01,0.127-0.014,0.252-0.031,0.375
		C70.951,40.431,70.93,40.489,70.912,40.547z"/>
	<path fill="#181819" d="M39.724,8.135c0,0,6.716-2.365,7.851-1.608c1.135,0.757,25.35,24.699,25.728,25.356
		c0.378,0.657,0,3.784,0,3.784L48.142,24.594l-0.284,2.743l25.161,9.175l0.452,3.878h-1.114c0,0-0.662-2.932-1.324-3.216
		c-0.662-0.284-5.486-1.135-6.053-0.946c-0.568,0.189-0.851,3.405-0.851,3.405h-8.04c0,0-1.041-6.432-1.513-6.905
		c-0.473-0.473-4.824-1.514-5.297-1.23c-0.473,0.284-1.041,8.135-1.041,8.135h-4.066c0,0,2.744-5.108,0-10.783
		c0,0,0.944-0.284,1.323-1.041c0.378-0.757,0.379-17.594-0.378-18.067c-0.757-0.473-3.352,0.378-3.352,0.378L39.724,8.135z"/>
</g>
</svg>
