<?xml version="1.0" encoding="utf-8"?>
<!-- Generator: Adobe Illustrator 17.0.0, SVG Export Plug-In . SVG Version: 6.00 Build 0)  -->
<!DOCTYPE svg PUBLIC "-//W3C//DTD SVG 1.1//EN" "http://www.w3.org/Graphics/SVG/1.1/DTD/svg11.dtd">
<svg version="1.1" id="Layer_1" xmlns="http://www.w3.org/2000/svg" xmlns:xlink="http://www.w3.org/1999/xlink" x="0px" y="0px"
	 width="50px" height="48px" viewBox="0 0 50 48" enable-background="new 0 0 50 48" xml:space="preserve">
<g id="XMLID_456_">
	<path id="XMLID_466_" fill="#181819" d="M16.93,2v44.212h5.704v-8.857h4.789v8.857h6.112V2H16.93z M22.228,30.359h-2.817v-6.902
		h2.817V30.359z M22.228,21.532h-2.817V14.63h2.817V21.532z M22.228,12.986h-2.817V6.085h2.817V12.986z M26.642,30.359h-2.817
		v-6.902h2.817V30.359z M26.642,21.532h-2.817V14.63h2.817V21.532z M26.642,12.986h-2.817V6.085h2.817V12.986z M31.055,30.359
		h-2.817v-6.902h2.817V30.359z M31.055,21.532h-2.817V14.63h2.817V21.532z M31.055,12.986h-2.817V6.085h2.817V12.986z"/>
	<path id="XMLID_460_" fill="#181819" d="M12.611,39.13v-4.32h3.568v-3.005h-3.568v-4.319h3.568v-3.381h-3.568v-4.32h3.568v-3.184
		h-3.568v-4.32h3.568V9.465H2v34.462h14.179V39.13H12.611z M9.09,39.13H4.77v-4.32H9.09V39.13z M9.09,31.806H4.77v-4.319H9.09
		V31.806z M9.09,24.106H4.77v-4.32H9.09V24.106z M9.09,16.602H4.77v-4.32H9.09V16.602z"/>
	<path id="XMLID_457_" fill="#181819" d="M46.275,42.267v-3.833v-1.831v-0.798v-2.441v-2.63v-1.409v-2.629V25.42v-2.629v-1.494
		v-2.629v-1.502v-2.629h-2.817h-8.827v2.629h8.827v1.502h-8.827v2.629h8.827v1.494h-8.827v2.629h8.827v1.276h-8.827v2.629h8.827
		v1.409h-8.827v2.63h8.827v2.441h-8.827v0.798v1.831v3.833v2.224h8.827h2.817h1.878v-2.224H46.275z M41.392,42.143h-5.258v-3.85
		h5.258V42.143z"/>
</g>
</svg>
