<?xml version="1.0" encoding="utf-8"?>
<!-- Generator: Adobe Illustrator 17.0.0, SVG Export Plug-In . SVG Version: 6.00 Build 0)  -->
<!DOCTYPE svg PUBLIC "-//W3C//DTD SVG 1.1//EN" "http://www.w3.org/Graphics/SVG/1.1/DTD/svg11.dtd">
<svg version="1.1" id="Layer_1" xmlns="http://www.w3.org/2000/svg" xmlns:xlink="http://www.w3.org/1999/xlink" x="0px" y="0px"
	 width="104px" height="60px" viewBox="0 0 104 60" enable-background="new 0 0 104 60" xml:space="preserve">
<g>
	<g>
		<path fill="#57291E" d="M5.25,46.401c-0.203,0.35-0.406,1.419-0.365,1.983c0.041,0.564,0.047,0.62,0.319,0.787
			c0.272,0.169,0.364,0.186,0.422,0.037c0.058-0.148,0.65,0.52,0.939,0.729c0.29,0.209,0.943,0.626,1.765,0.645
			c0.821,0.019,1.549-0.125,1.549-0.65s-0.256-0.77-0.854-1.274c-0.598-0.503-1.185-1.465-1.359-1.902
			c-0.173-0.436-0.757-0.328-1.018-0.187s-0.525,0.949-0.873,0.67C5.425,46.961,5.366,46.26,5.25,46.401z"/>
		<path fill="#57291E" d="M9.818,46.401c-0.234,0.334-0.467,1.354-0.422,1.891s0.055,0.592,0.365,0.751
			c0.314,0.159,0.419,0.176,0.484,0.037c0.067-0.142,0.746,0.495,1.081,0.696c0.334,0.2,1.087,0.597,2.032,0.615
			c0.945,0.017,1.785-0.119,1.785-0.62s-0.294-0.736-0.984-1.215c-0.69-0.479-1.365-1.398-1.565-1.813
			c-0.2-0.417-0.873-0.314-1.174-0.18c-0.301,0.133-0.606,0.906-1.006,0.639C10.016,46.936,9.951,46.268,9.818,46.401z"/>
		<g>
			<path fill="#27557D" d="M5.405,26.646h2.642c0.364,0,0.659,0.297,0.659,0.662v19.554c0,0.364-0.297,0.659-0.659,0.659H5.405
				c-0.364,0-0.659-0.297-0.659-0.659V27.305C4.744,26.943,5.04,26.646,5.405,26.646z"/>
			<path fill="#27557D" d="M9.959,26.646h2.642c0.364,0,0.662,0.297,0.662,0.662v19.554c0,0.364-0.297,0.659-0.662,0.659H9.959
				c-0.364,0-0.659-0.297-0.659-0.659V27.305C9.298,26.943,9.595,26.646,9.959,26.646z"/>
		</g>
		<g>
			<path fill="#FFD7B7" d="M23.491,17.186l0.39,1.651l1.598,0.075c0.851,0.041,1.66,0.103,2.027-0.353
				c0.328-0.408,0.614-2.177-0.086-2.232l-2.21-0.3L23.491,17.186z"/>
			<polygon fill="#FFFFFF" points="22.628,16.819 23.015,19.693 24.258,19.502 23.872,16.629 			"/>
			<path fill="#27557D" d="M11.32,11.818c-0.161-0.275-0.092-0.567,0.039-0.929c1.496-0.28,3.415,0.912,3.957,2.022l1.902,3.749
				l5.82-0.037c0.002,0,0.005,0.003,0.005,0.005l0.387,3.154c0,0.002-0.003,0.005-0.003,0.005l-6.532,0.15
				c-1.087,0.025-1.707-0.725-1.95-1.088C14.508,18.198,11.498,12.124,11.32,11.818z"/>
		</g>
		<path fill="#3F73A1" d="M13.68,28.459c-3.106,0.865-6.21,0.91-9.316,0L3.861,17.561c-0.078-1.726-1.799-3.676-1.379-4.521
			c0.775-1.558,4.035-2.636,5.152-3.543c0.429,0.378,0.899,0.6,1.385,0.6s0.957-0.223,1.385-0.6c0.817,0.665,2.801,1.41,4.096,2.381
			c-0.775,2.495-0.191,3.092-0.319,5.839L13.68,28.459z"/>
		<polygon fill="#FFFFFF" points="6.32,10.362 6.62,13.142 9.036,19.274 11.417,13.142 11.717,10.362 10.565,9.62 7.471,9.62 		"/>
		<rect x="7.471" y="8.624" fill="#D1A886" width="3.067" height="2.499"/>
		<path fill="#FC8D25" d="M9.418,12.67l0.169-0.354l-0.568-1.377l-0.557,1.354l0.178,0.378C8.897,12.67,9.158,12.67,9.418,12.67z"/>
		<polygon fill="#CCCCCC" points="7.471,9.62 9.017,10.937 8.15,13.26 6.748,10.1 		"/>
		<polygon fill="#27557D" points="6.748,10.1 9.017,19.305 5.833,14.227 6.251,13.342 5.343,12.615 6.32,10.362 		"/>
		<polygon fill="#CCCCCC" points="10.565,9.62 9.017,10.937 9.887,13.26 11.288,10.1 		"/>
		<polygon fill="#FC8D25" points="8.638,13.534 9.418,13.534 9.824,17.446 9.017,19.305 8.242,17.446 		"/>
		<polygon fill="#FFFFFF" points="7.471,9.62 9.017,10.937 8.13,12.686 6.748,10.1 		"/>
		<polygon fill="#3F73A1" points="6.748,10.1 9.017,19.305 6.142,13.824 6.62,13.142 5.7,12.427 6.32,10.362 		"/>
		<polygon fill="#27557D" points="11.288,10.1 9.017,19.305 12.203,14.227 11.784,13.342 12.693,12.615 11.717,10.362 		"/>
		<polygon fill="#3F73A1" points="11.288,10.1 9.017,19.305 11.893,13.824 11.417,13.142 12.335,12.427 11.717,10.362 		"/>
		<polygon fill="#FFFFFF" points="10.565,9.62 9.017,10.937 9.906,12.686 11.288,10.1 		"/>
		<path fill="#FC8D25" d="M8.638,12.606h0.781c0.175,0.362,0.161,0.678,0,0.987H8.638C8.477,13.282,8.463,12.965,8.638,12.606z"/>
		<path fill="#27557D" d="M9.079,29.125c-0.305-3.048-0.358-7.102-0.061-10.614C9.315,22.021,9.382,26.076,9.079,29.125z"/>
		<g>
			<path fill="#FFD7B7" d="M13.404,22.931l-0.028,0.289l0.309-0.003l2.481-0.02c0.28-0.003,0.439-0.12,0.533-0.287
				c0.078-0.142,0.148-0.498,0.016-0.497l-2.817,0.031C13.652,22.443,13.429,22.664,13.404,22.931z"/>
			<path fill="#FFE7D4" d="M16.795,22.471c0.005-0.056-0.031-0.061-0.053-0.061l-0.565,0.011c0.011,0.25,0.295,0.28,0.531,0.203
				C16.744,22.611,16.789,22.543,16.795,22.471z"/>
		</g>
		<path fill="#FFD7B7" d="M17.404,22.399l0.423,1.641l-1.379,0.809c-0.734,0.431-1.421,0.865-1.958,0.632
			c-0.479-0.208-1.557-1.641-0.962-2.014l1.772-1.262L17.404,22.399z"/>
		<path fill="#D1A886" d="M11.942,22.885l-0.247,1.679l1.457,0.657c0.775,0.35,1.499,0.534,2.019,0.273
			c0.518-0.259,1.305-1.738,0.673-2.046l-2.061-0.988L11.942,22.885z"/>
		<path fill="#FFD7B7" d="M11.753,22.897l-0.247,1.679l1.457,0.657c0.775,0.35,1.505,0.709,2.014,0.419
			c0.453-0.259,1.374-1.797,0.742-2.105l-1.944-1.092L11.753,22.897z"/>
		<polygon fill="#FFFFFF" points="11.086,22.238 10.387,25.05 11.612,25.332 12.312,22.521 		"/>
		<path fill="#27557D" d="M2.418,13.421c-0.047-0.315,0.125-0.562,0.378-0.848c1.494,0.292,2.887,2.416,2.98,3.646l0.337,3.876
			l5.425,2.11c0.002,0,0.003,0.005,0.003,0.006l-0.803,3.076c0,0.002-0.005,0.005-0.006,0.003l-6.128-2.267
			c-1.02-0.378-1.32-1.302-1.412-1.73C3.028,20.527,2.469,13.773,2.418,13.421z"/>
		<path fill="#D1A886" d="M15.883,22.636l0.042,0.062l-2.48,1.265c-0.258,0.106-0.451,0.061-0.601-0.056
			c-0.128-0.1-0.333-0.401-0.209-0.451l2.603-1.077C15.465,22.282,15.757,22.399,15.883,22.636z"/>
		<path fill="#FFD7B7" d="M15.788,22.443l0.139,0.253l-0.286,0.119l-2.291,0.954c-0.258,0.106-0.451,0.061-0.604-0.056
			c-0.128-0.1-0.333-0.401-0.209-0.451l2.633-1.021C15.398,22.147,15.66,22.207,15.788,22.443z"/>
		<path fill="#FFE7D4" d="M12.488,23.351c-0.027-0.048,0.005-0.07,0.025-0.077l0.525-0.212c0.089,0.234-0.161,0.373-0.408,0.394
			C12.592,23.459,12.521,23.414,12.488,23.351z"/>
		<polygon fill="#FFFFFF" points="17.996,21.671 18.992,24.395 17.803,24.805 16.806,22.083 		"/>
		<path fill="#3F73A1" d="M26.287,13.465c0.012-0.319,0.166-1.637-0.119-1.896c-1.454,0.45-2.03,0.45-2.183,1.206l-1.273,6.239
			l-5.169,2.677c-0.002,0.002-0.003,0.005-0.003,0.006l1.127,2.973c0,0.002,0.005,0.003,0.006,0.003l5.851-2.908
			c0.973-0.484,1.174-1.435,1.22-1.871C25.826,19.112,26.271,13.818,26.287,13.465z"/>
		<path fill="#2C3945" d="M29.321,46.401c0.234,0.334,0.467,1.354,0.422,1.891c-0.045,0.537-0.055,0.592-0.365,0.751
			c-0.314,0.159-0.419,0.176-0.484,0.037c-0.067-0.142-0.746,0.495-1.081,0.696c-0.334,0.2-1.087,0.597-2.032,0.615
			c-0.945,0.017-1.785-0.119-1.785-0.62s0.294-0.736,0.985-1.215c0.689-0.479,1.363-1.398,1.563-1.813
			c0.2-0.417,0.873-0.314,1.174-0.18c0.301,0.133,0.606,0.906,1.006,0.639C29.121,46.936,29.188,46.268,29.321,46.401z"/>
		<path fill="#2C3945" d="M33.859,46.401c0.203,0.35,0.406,1.419,0.365,1.983c-0.041,0.564-0.047,0.62-0.319,0.787
			c-0.272,0.167-0.364,0.186-0.422,0.037s-0.65,0.52-0.94,0.729c-0.29,0.209-0.943,0.626-1.765,0.645
			c-0.821,0.019-1.549-0.125-1.549-0.65s0.256-0.77,0.854-1.274c0.598-0.503,1.182-1.465,1.359-1.902
			c0.173-0.436,0.757-0.328,1.018-0.187c0.261,0.141,0.525,0.949,0.873,0.67C33.686,46.961,33.743,46.26,33.859,46.401z"/>
		<g>
			<path fill="#3F73A1" d="M26.526,26.646h2.641c0.364,0,0.662,0.297,0.662,0.662v19.554c0,0.364-0.297,0.659-0.662,0.659h-2.641
				c-0.364,0-0.662-0.297-0.662-0.659V27.305C25.865,26.943,26.163,26.646,26.526,26.646z"/>
			<path fill="#3F73A1" d="M31.079,26.646h2.642c0.364,0,0.659,0.297,0.659,0.662v19.554c0,0.364-0.297,0.659-0.659,0.659h-2.642
				c-0.364,0-0.659-0.297-0.659-0.659V27.305C30.42,26.943,30.717,26.646,31.079,26.646z"/>
		</g>
		<path fill="#27557D" d="M37.971,28.619l1.017-0.511c0.234-0.117,0.522-0.023,0.639,0.212l0.62,1.232l2.302-1.157
			c0.622-0.314,1.385-0.059,1.699,0.562l2.386,4.747c0.314,0.622,0.059,1.385-0.562,1.699l-8.1,4.073v-8.779l1.758-0.884
			l-0.362-0.72c-0.117-0.231-0.401-0.325-0.634-0.209l-0.765,0.383v-0.648L37.971,28.619z M33.806,32.79l2.302-1.157l-0.62-1.232
			c-0.117-0.234-0.023-0.522,0.212-0.639l2.274-1.143v0.65l-1.499,0.754c-0.231,0.117-0.325,0.401-0.209,0.634l0.361,0.72
			l1.348-0.678v8.779L37.332,39.8c-0.622,0.314-1.385,0.059-1.699-0.562l-2.386-4.747C32.931,33.866,33.184,33.104,33.806,32.79z"/>
		<path fill="#5A8FBD" d="M34.801,28.459c-3.106,0.865-6.212,0.91-9.316,0l-0.503-10.898c-0.102-2.216,0.017-3.698-0.768-5.297
			c1.24-1.156,3.62-2.019,4.541-2.769c0.429,0.378,0.899,0.6,1.385,0.6c0.486,0,0.957-0.223,1.385-0.6
			c0.865,0.706,3.042,1.499,4.319,2.555c-1.254,2.03-0.423,3.133-0.54,5.664L34.801,28.459z"/>
		<polygon fill="#FFFFFF" points="27.441,10.362 27.741,13.142 30.156,19.274 32.538,13.142 32.838,10.362 31.687,9.62 28.592,9.62 
					"/>
		<rect x="28.592" y="8.624" fill="#D1A886" width="3.067" height="2.499"/>
		<path fill="#93B9DB" d="M30.539,12.67l0.169-0.354l-0.568-1.377l-0.557,1.354l0.178,0.378C30.019,12.67,30.28,12.67,30.539,12.67z
			"/>
		<polygon fill="#CCCCCC" points="28.592,9.62 30.141,10.937 29.271,13.26 27.87,10.1 		"/>
		<polygon fill="#3F73A1" points="27.87,10.1 30.141,19.305 26.955,14.227 27.374,13.342 26.463,12.615 27.441,10.362 		"/>
		<polygon fill="#CCCCCC" points="31.687,9.62 30.141,10.937 31.007,13.26 32.408,10.1 		"/>
		<polygon fill="#93B9DB" points="29.758,13.534 30.539,13.534 30.945,17.446 30.141,19.305 29.363,17.446 		"/>
		<polygon fill="#FFFFFF" points="28.592,9.62 30.141,10.937 29.252,12.686 27.87,10.1 		"/>
		<polygon fill="#5A8FBD" points="27.87,10.1 30.141,19.305 27.263,13.824 27.741,13.142 26.822,12.427 27.441,10.362 		"/>
		<polygon fill="#FFFFFF" points="31.687,9.62 30.141,10.937 31.028,12.686 32.408,10.1 		"/>
		<path fill="#93B9DB" d="M29.758,12.606h0.781c0.175,0.362,0.161,0.678,0,0.987h-0.781C29.597,13.282,29.585,12.965,29.758,12.606z
			"/>
		<path fill="#3F73A1" d="M30.2,29.125c-0.303-3.048-0.358-7.102-0.061-10.614C30.436,22.021,30.505,26.076,30.2,29.125z"/>
		<path fill="#F2CAA9" d="M10.352,9.83c3.203-0.832,2.77-10.182-2.414-8.595C3.088,2.721,7.151,10.665,10.352,9.83z"/>
		<path fill="#57291E" d="M11.982,3.44c-0.334,0.668-2.9,1.872-4.016,1.96C6.85,5.487,7.883,1.167,11.982,3.44z"/>
		<path fill="#57291E" d="M7.212,1.399C5.065,2.629,4.923,6.795,7.529,8.626C7.067,8.071,7.001,7.397,7.293,6.23
			c0.17,0.114,0.775,0.949,0.684-0.473c-0.17-2.628,1.804-2.822,3.993-2.194C11.872,1.317,8.906,0.429,7.212,1.399z"/>
		
			<ellipse transform="matrix(0.1098 0.994 -0.994 0.1098 11.9086 -1.6985)" fill="#F2CAA9" cx="6.902" cy="5.799" rx="1.115" ry="0.622"/>
		<path fill="#F2CAA9" d="M28.896,9.83c-3.203-0.832-2.77-10.182,2.414-8.595C36.161,2.721,32.096,10.665,28.896,9.83z"/>
		<path fill="#99780B" d="M31.702,1.377c2.508,0.984,2.623,5.417,0.017,7.247c0.462-0.554,0.528-1.229,0.236-2.395
			c-0.17,0.114-0.595,0.914-0.684-0.473c-0.17-2.623-1.693-2.072-2.989-2.163c-0.543-0.039-0.643-0.567-1.087,0.031
			C27.606,1.525,29.641,0.568,31.702,1.377z"/>
		
			<ellipse transform="matrix(-0.1098 0.994 -0.994 -0.1098 41.6491 -25.7065)" fill="#F2CAA9" cx="32.336" cy="5.798" rx="1.115" ry="0.622"/>
		<g>
			<g>
				
					<rect x="35.926" y="25.064" transform="matrix(0.9417 -0.3364 0.3364 0.9417 -6.7002 13.9148)" fill="#F2CAA9" width="1.763" height="2.459"/>
				<path fill="#F2CAA9" d="M35.909,25.859l1.641-0.201l0.158,1.29l0.682,1.323c-0.7,0.233-1.886-0.231-1.893,0.773L35.909,25.859z"
					/>
				<path fill="#F2CAA9" d="M38.597,28.776l-0.84-2.48c-0.07-0.191-0.289-0.286-0.478-0.212l0,0
					c-0.017,0.006-0.034,0.016-0.05,0.025l-0.077-0.205c-0.073-0.2-0.301-0.297-0.5-0.22l0,0c-0.139,0.055-0.228,0.178-0.244,0.317
					c-0.086-0.025-0.178-0.023-0.267,0.012l0,0c-0.215,0.083-0.32,0.325-0.237,0.54l1.073,2.695l0.22,0.2
					c0.081,0.215,0.267-0.24,0.483-0.322l0,0c0.205-0.078,0.262-0.245,0.203-0.451C37.91,28.506,38.781,29.27,38.597,28.776z"/>
				<path fill="#F2CAA9" d="M37.522,29.895L37.522,29.895c0.145-0.059,0.216-0.23,0.156-0.376l-0.201-0.575l0.003-0.025
					l-0.731-0.233l0.397,1.051C37.205,29.885,37.376,29.955,37.522,29.895z"/>
				<path fill="#F2CAA9" d="M36.559,29.329c-0.003-0.275,0.276-0.403,0.442-0.023l0.664-2.238l-0.923-0.75l-0.473,0.803
					c-0.28,0.034-0.389,0.493-0.389,0.728l-0.002,1.819L36.559,29.329z"/>
				<path fill="#F2CAA9" d="M38.501,29.479L38.501,29.479c0.155-0.039,0.247-0.194,0.212-0.348l-0.322-0.943l-0.665,0.32
					l0.426,0.759C38.189,29.421,38.348,29.517,38.501,29.479z"/>
				<path fill="#F2CAA9" d="M38.039,29.648L38.039,29.648c0.147-0.059,0.215-0.23,0.158-0.376l-0.228-0.564l0.016-0.904
					l-0.459,1.348l0.139,0.339C37.722,29.637,37.892,29.707,38.039,29.648z"/>
				<path fill="#F2CAA9" d="M38.903,29.275L38.903,29.275c0.155-0.039,0.247-0.194,0.212-0.348l-0.757-1.404l-0.736,0.131
					l0.964,1.254l-0.031,0.155C38.591,29.218,38.75,29.314,38.903,29.275z"/>
			</g>
			<polygon fill="#FFFFFF" points="38.569,27.515 35.697,27.914 35.602,27.254 38.472,26.853 			"/>
			<path fill="#3F73A1" d="M33.543,13.613l2.271-1.569c0.837,0.553,1.012,2.044,1.06,2.399l1.743,12.538
				c0,0.003-0.002,0.005-0.005,0.005l-3.15,0.439c-0.003,0-0.005-0.002-0.006-0.003l-1.918-13.803
				C33.539,13.616,33.542,13.613,33.543,13.613z"/>
		</g>
		<path fill="#5A8FBD" d="M35.845,12.05c-0.259,0.464-0.539,0.976-0.7,2.539c-0.161,1.563-0.17,6.388-0.162,10.021
			c0.005,3.632-3.029,0.044-3.029,0.044l0.823-11.173l1.668-1.668L35.845,12.05z"/>
		<polygon fill="#3F73A1" points="32.408,10.1 30.141,19.305 33.325,14.227 32.906,13.342 33.815,12.615 32.838,10.362 		"/>
		<polygon fill="#5A8FBD" points="32.408,10.1 30.141,19.305 33.016,13.824 32.538,13.142 33.458,12.427 32.838,10.362 		"/>
	</g>
	<g>
		<g>
			<path fill="#FEFEFE" d="M85.828,23.923c0,0.422-0.161,0.844-0.483,1.167c-0.322,0.322-0.744,0.483-1.165,0.483H55.946
				c-0.422,0-0.844-0.161-1.167-0.483c-0.322-0.322-0.483-0.744-0.483-1.167V7.525c0-0.422,0.161-0.844,0.483-1.165
				c0.322-0.322,0.744-0.483,1.167-0.483h28.233c0.422,0,0.844,0.161,1.165,0.483c0.322,0.322,0.483,0.744,0.483,1.165V23.923z"/>
			<path fill="#96D2C7" d="M84.611,18.747c0,0.422-0.17,0.844-0.51,1.165c-0.341,0.322-0.786,0.483-1.232,0.483H57.257
				c-0.446,0-0.892-0.161-1.232-0.483c-0.341-0.322-0.51-0.744-0.51-1.165V8.606c0-0.422,0.17-0.844,0.51-1.165
				c0.341-0.322,0.786-0.483,1.232-0.483h25.611c0.446,0,0.892,0.161,1.232,0.483c0.341,0.322,0.51,0.744,0.51,1.165V18.747z"/>
			<circle fill="#E84423" cx="83.15" cy="22.485" r="0.656"/>
			<rect x="66.187" y="25.573" fill="#FEFEFE" width="7.75" height="6.971"/>
			<rect x="66.187" y="25.573" fill="#E9E9E9" width="7.75" height="0.828"/>
			<path fill="#FEFEFE" d="M77.4,32.132c0,0.106-0.04,0.211-0.12,0.291c-0.08,0.08-0.186,0.12-0.291,0.12H63.136
				c-0.106,0-0.211-0.04-0.291-0.12c-0.08-0.08-0.12-0.186-0.12-0.291v-0.479c0-0.106,0.04-0.211,0.12-0.291
				c0.08-0.08,0.186-0.12,0.291-0.12h13.851c0.106,0,0.211,0.04,0.291,0.12c0.08,0.08,0.12,0.186,0.12,0.291V32.132z"/>
		</g>
		<g>
			<g>
				<defs>
					<path id="SVGID_1_" d="M84.611,18.747c0,0.422-0.17,0.844-0.51,1.165c-0.341,0.322-0.786,0.483-1.232,0.483H57.257
						c-0.446,0-0.892-0.161-1.232-0.483c-0.341-0.322-0.51-0.744-0.51-1.165V8.606c0-0.422,0.17-0.844,0.51-1.165
						c0.341-0.322,0.786-0.483,1.232-0.483h25.611c0.446,0,0.892,0.161,1.232,0.483c0.341,0.322,0.51,0.744,0.51,1.165V18.747z"/>
				</defs>
				<clipPath id="SVGID_2_">
					<use xlink:href="#SVGID_1_"  overflow="visible"/>
				</clipPath>
				<rect x="57.326" y="8.422" clip-path="url(#SVGID_2_)" fill="#CFD1D3" width="9.796" height="0.795"/>
			</g>
			<g>
				<defs>
					<path id="SVGID_3_" d="M84.611,18.747c0,0.422-0.17,0.844-0.51,1.165c-0.341,0.322-0.786,0.483-1.232,0.483H57.257
						c-0.446,0-0.892-0.161-1.232-0.483c-0.341-0.322-0.51-0.744-0.51-1.165V8.606c0-0.422,0.17-0.844,0.51-1.165
						c0.341-0.322,0.786-0.483,1.232-0.483h25.611c0.446,0,0.892,0.161,1.232,0.483c0.341,0.322,0.51,0.744,0.51,1.165V18.747z"/>
				</defs>
				<clipPath id="SVGID_4_">
					<use xlink:href="#SVGID_3_"  overflow="visible"/>
				</clipPath>
				<rect x="57.326" y="9.217" clip-path="url(#SVGID_4_)" fill="#E9E9E9" width="9.796" height="8.124"/>
			</g>
			<g>
				<defs>
					<path id="SVGID_5_" d="M84.611,18.747c0,0.422-0.17,0.844-0.51,1.165c-0.341,0.322-0.786,0.483-1.232,0.483H57.257
						c-0.446,0-0.892-0.161-1.232-0.483c-0.341-0.322-0.51-0.744-0.51-1.165V8.606c0-0.422,0.17-0.844,0.51-1.165
						c0.341-0.322,0.786-0.483,1.232-0.483h25.611c0.446,0,0.892,0.161,1.232,0.483c0.341,0.322,0.51,0.744,0.51,1.165V18.747z"/>
				</defs>
				<clipPath id="SVGID_6_">
					<use xlink:href="#SVGID_5_"  overflow="visible"/>
				</clipPath>
				<rect x="77.89" y="8.422" clip-path="url(#SVGID_6_)" fill="#CFD1D3" width="4.898" height="0.795"/>
			</g>
			<g>
				<defs>
					<path id="SVGID_7_" d="M84.611,18.747c0,0.422-0.17,0.844-0.51,1.165c-0.341,0.322-0.786,0.483-1.232,0.483H57.257
						c-0.446,0-0.892-0.161-1.232-0.483c-0.341-0.322-0.51-0.744-0.51-1.165V8.606c0-0.422,0.17-0.844,0.51-1.165
						c0.341-0.322,0.786-0.483,1.232-0.483h25.611c0.446,0,0.892,0.161,1.232,0.483c0.341,0.322,0.51,0.744,0.51,1.165V18.747z"/>
				</defs>
				<clipPath id="SVGID_8_">
					<use xlink:href="#SVGID_7_"  overflow="visible"/>
				</clipPath>
				<rect x="77.89" y="9.217" clip-path="url(#SVGID_8_)" fill="#E9E9E9" width="4.898" height="3.717"/>
			</g>
			<g>
				<defs>
					<path id="SVGID_9_" d="M84.611,18.747c0,0.422-0.17,0.844-0.51,1.165c-0.341,0.322-0.786,0.483-1.232,0.483H57.257
						c-0.446,0-0.892-0.161-1.232-0.483c-0.341-0.322-0.51-0.744-0.51-1.165V8.606c0-0.422,0.17-0.844,0.51-1.165
						c0.341-0.322,0.786-0.483,1.232-0.483h25.611c0.446,0,0.892,0.161,1.232,0.483c0.341,0.322,0.51,0.744,0.51,1.165V18.747z"/>
				</defs>
				<clipPath id="SVGID_10_">
					<use xlink:href="#SVGID_9_"  overflow="visible"/>
				</clipPath>
				<rect x="77.291" y="13.677" clip-path="url(#SVGID_10_)" fill="#CFD1D3" width="4.898" height="0.795"/>
			</g>
			<g>
				<defs>
					<path id="SVGID_11_" d="M84.611,18.747c0,0.422-0.17,0.844-0.51,1.165c-0.341,0.322-0.786,0.483-1.232,0.483H57.257
						c-0.446,0-0.892-0.161-1.232-0.483c-0.341-0.322-0.51-0.744-0.51-1.165V8.606c0-0.422,0.17-0.844,0.51-1.165
						c0.341-0.322,0.786-0.483,1.232-0.483h25.611c0.446,0,0.892,0.161,1.232,0.483c0.341,0.322,0.51,0.744,0.51,1.165V18.747z"/>
				</defs>
				<clipPath id="SVGID_12_">
					<use xlink:href="#SVGID_11_"  overflow="visible"/>
				</clipPath>
				<rect x="77.291" y="14.472" clip-path="url(#SVGID_12_)" fill="#E9E9E9" width="4.898" height="3.717"/>
			</g>
			<g>
				<defs>
					<path id="SVGID_13_" d="M84.611,18.747c0,0.422-0.17,0.844-0.51,1.165c-0.341,0.322-0.786,0.483-1.232,0.483H57.257
						c-0.446,0-0.892-0.161-1.232-0.483c-0.341-0.322-0.51-0.744-0.51-1.165V8.606c0-0.422,0.17-0.844,0.51-1.165
						c0.341-0.322,0.786-0.483,1.232-0.483h25.611c0.446,0,0.892,0.161,1.232,0.483c0.341,0.322,0.51,0.744,0.51,1.165V18.747z"/>
				</defs>
				<clipPath id="SVGID_14_">
					<use xlink:href="#SVGID_13_"  overflow="visible"/>
				</clipPath>
				<rect x="78.095" y="9.539" clip-path="url(#SVGID_14_)" fill="#CFD1D3" width="2.172" height="0.138"/>
			</g>
			<g>
				<defs>
					<path id="SVGID_15_" d="M84.611,18.747c0,0.422-0.17,0.844-0.51,1.165c-0.341,0.322-0.786,0.483-1.232,0.483H57.257
						c-0.446,0-0.892-0.161-1.232-0.483c-0.341-0.322-0.51-0.744-0.51-1.165V8.606c0-0.422,0.17-0.844,0.51-1.165
						c0.341-0.322,0.786-0.483,1.232-0.483h25.611c0.446,0,0.892,0.161,1.232,0.483c0.341,0.322,0.51,0.744,0.51,1.165V18.747z"/>
				</defs>
				<clipPath id="SVGID_16_">
					<use xlink:href="#SVGID_15_"  overflow="visible"/>
				</clipPath>
				<rect x="78.095" y="9.828" clip-path="url(#SVGID_16_)" fill="#CFD1D3" width="2.172" height="0.138"/>
			</g>
			<g>
				<defs>
					<path id="SVGID_17_" d="M84.611,18.747c0,0.422-0.17,0.844-0.51,1.165c-0.341,0.322-0.786,0.483-1.232,0.483H57.257
						c-0.446,0-0.892-0.161-1.232-0.483c-0.341-0.322-0.51-0.744-0.51-1.165V8.606c0-0.422,0.17-0.844,0.51-1.165
						c0.341-0.322,0.786-0.483,1.232-0.483h25.611c0.446,0,0.892,0.161,1.232,0.483c0.341,0.322,0.51,0.744,0.51,1.165V18.747z"/>
				</defs>
				<clipPath id="SVGID_18_">
					<use xlink:href="#SVGID_17_"  overflow="visible"/>
				</clipPath>
				<rect x="80.775" y="9.539" clip-path="url(#SVGID_18_)" fill="#CFD1D3" width="1.567" height="1.65"/>
			</g>
			<g>
				<defs>
					<path id="SVGID_19_" d="M84.611,18.747c0,0.422-0.17,0.844-0.51,1.165c-0.341,0.322-0.786,0.483-1.232,0.483H57.257
						c-0.446,0-0.892-0.161-1.232-0.483c-0.341-0.322-0.51-0.744-0.51-1.165V8.606c0-0.422,0.17-0.844,0.51-1.165
						c0.341-0.322,0.786-0.483,1.232-0.483h25.611c0.446,0,0.892,0.161,1.232,0.483c0.341,0.322,0.51,0.744,0.51,1.165V18.747z"/>
				</defs>
				<clipPath id="SVGID_20_">
					<use xlink:href="#SVGID_19_"  overflow="visible"/>
				</clipPath>
				<rect x="78.095" y="10.103" clip-path="url(#SVGID_20_)" fill="#CFD1D3" width="2.172" height="0.138"/>
			</g>
			<g>
				<defs>
					<path id="SVGID_21_" d="M84.611,18.747c0,0.422-0.17,0.844-0.51,1.165c-0.341,0.322-0.786,0.483-1.232,0.483H57.257
						c-0.446,0-0.892-0.161-1.232-0.483c-0.341-0.322-0.51-0.744-0.51-1.165V8.606c0-0.422,0.17-0.844,0.51-1.165
						c0.341-0.322,0.786-0.483,1.232-0.483h25.611c0.446,0,0.892,0.161,1.232,0.483c0.341,0.322,0.51,0.744,0.51,1.165V18.747z"/>
				</defs>
				<clipPath id="SVGID_22_">
					<use xlink:href="#SVGID_21_"  overflow="visible"/>
				</clipPath>
				<rect x="57.613" y="9.677" clip-path="url(#SVGID_22_)" fill="#CFD1D3" width="3.504" height="7.235"/>
			</g>
			<g>
				<defs>
					<path id="SVGID_23_" d="M84.611,18.747c0,0.422-0.17,0.844-0.51,1.165c-0.341,0.322-0.786,0.483-1.232,0.483H57.257
						c-0.446,0-0.892-0.161-1.232-0.483c-0.341-0.322-0.51-0.744-0.51-1.165V8.606c0-0.422,0.17-0.844,0.51-1.165
						c0.341-0.322,0.786-0.483,1.232-0.483h25.611c0.446,0,0.892,0.161,1.232,0.483c0.341,0.322,0.51,0.744,0.51,1.165V18.747z"/>
				</defs>
				<clipPath id="SVGID_24_">
					<use xlink:href="#SVGID_23_"  overflow="visible"/>
				</clipPath>
				<rect x="58.004" y="10.192" clip-path="url(#SVGID_24_)" fill="#E9E9E9" width="2.721" height="2.453"/>
			</g>
			<g>
				<defs>
					<path id="SVGID_25_" d="M84.611,18.747c0,0.422-0.17,0.844-0.51,1.165c-0.341,0.322-0.786,0.483-1.232,0.483H57.257
						c-0.446,0-0.892-0.161-1.232-0.483c-0.341-0.322-0.51-0.744-0.51-1.165V8.606c0-0.422,0.17-0.844,0.51-1.165
						c0.341-0.322,0.786-0.483,1.232-0.483h25.611c0.446,0,0.892,0.161,1.232,0.483c0.341,0.322,0.51,0.744,0.51,1.165V18.747z"/>
				</defs>
				<clipPath id="SVGID_26_">
					<use xlink:href="#SVGID_25_"  overflow="visible"/>
				</clipPath>
				<rect x="58.004" y="12.892" clip-path="url(#SVGID_26_)" fill="#E9E9E9" width="2.721" height="0.227"/>
			</g>
			<g>
				<defs>
					<path id="SVGID_27_" d="M84.611,18.747c0,0.422-0.17,0.844-0.51,1.165c-0.341,0.322-0.786,0.483-1.232,0.483H57.257
						c-0.446,0-0.892-0.161-1.232-0.483c-0.341-0.322-0.51-0.744-0.51-1.165V8.606c0-0.422,0.17-0.844,0.51-1.165
						c0.341-0.322,0.786-0.483,1.232-0.483h25.611c0.446,0,0.892,0.161,1.232,0.483c0.341,0.322,0.51,0.744,0.51,1.165V18.747z"/>
				</defs>
				<clipPath id="SVGID_28_">
					<use xlink:href="#SVGID_27_"  overflow="visible"/>
				</clipPath>
				<rect x="58.004" y="13.294" clip-path="url(#SVGID_28_)" fill="#E9E9E9" width="2.721" height="0.227"/>
			</g>
			<g>
				<defs>
					<path id="SVGID_29_" d="M84.611,18.747c0,0.422-0.17,0.844-0.51,1.165c-0.341,0.322-0.786,0.483-1.232,0.483H57.257
						c-0.446,0-0.892-0.161-1.232-0.483c-0.341-0.322-0.51-0.744-0.51-1.165V8.606c0-0.422,0.17-0.844,0.51-1.165
						c0.341-0.322,0.786-0.483,1.232-0.483h25.611c0.446,0,0.892,0.161,1.232,0.483c0.341,0.322,0.51,0.744,0.51,1.165V18.747z"/>
				</defs>
				<clipPath id="SVGID_30_">
					<use xlink:href="#SVGID_29_"  overflow="visible"/>
				</clipPath>
				<rect x="58.321" y="13.697" clip-path="url(#SVGID_30_)" fill="#E9E9E9" width="2.089" height="0.227"/>
			</g>
		</g>
		
			<polyline fill="none" stroke="#FEFEFE" stroke-width="4" stroke-linecap="round" stroke-linejoin="round" stroke-miterlimit="10" points="
			47.876,32.42 41.736,32.42 41.708,45.144 		"/>
		<g>
			<rect x="47.693" y="31.525" fill="#96D2C7" width="19.675" height="1.007"/>
			<g>
				<rect x="48.584" y="31.072" fill="#FEFEFE" width="0.961" height="0.453"/>
				<rect x="49.793" y="31.072" fill="#FEFEFE" width="0.962" height="0.453"/>
				<rect x="51.002" y="31.072" fill="#FEFEFE" width="0.961" height="0.453"/>
				<rect x="52.266" y="31.072" fill="#FEFEFE" width="8.163" height="0.453"/>
				<rect x="60.677" y="31.072" fill="#FEFEFE" width="0.961" height="0.453"/>
				<rect x="61.886" y="31.072" fill="#FEFEFE" width="0.962" height="0.453"/>
				<rect x="63.095" y="31.072" fill="#FEFEFE" width="0.961" height="0.453"/>
				<rect x="64.304" y="31.072" fill="#FEFEFE" width="0.962" height="0.453"/>
				<rect x="65.514" y="31.072" fill="#FEFEFE" width="0.961" height="0.453"/>
			</g>
		</g>
		
			<polyline fill="none" stroke="#FEFEFE" stroke-width="4" stroke-linecap="round" stroke-linejoin="round" stroke-miterlimit="10" points="
			92.614,32.42 98.259,32.42 98.288,45.144 		"/>
		<g>
			<path fill="#FEFEFE" d="M91.75,31.225c0-0.139,0.038-0.268,0.103-0.38c-0.878-0.03-3.221,0.39-3.495,1.699h4.621
				c0,0-0.046-0.291-0.155-0.632c-0.096,0.045-0.203,0.07-0.317,0.07C92.089,31.982,91.75,31.642,91.75,31.225z"/>
			<path fill="#96D2C7" d="M91.985,30.854c-0.039-0.005-0.084-0.007-0.133-0.009c-0.065,0.111-0.103,0.241-0.103,0.38
				c0,0.418,0.338,0.757,0.757,0.757c0.114,0,0.22-0.025,0.317-0.07C92.676,31.451,92.412,30.901,91.985,30.854z"/>
		</g>
		<g>
			<path fill="#FFE0A1" d="M73.225,17.015l-3.205-2.621l-3.145,2.621c-0.085,0.494-0.451,1.065-0.451,1.065l3.597,0.2l3.597-0.2
				C73.618,18.081,73.309,17.511,73.225,17.015z"/>
			<path fill="#E84423" d="M80.175,20.411c-3.816-2.461-6.193-2.625-10.154-2.625s-6.338,0.165-10.154,2.625
				c-3.816,2.461,1.081,17.73,1.081,17.73l9.074,1.354l9.074-1.354C79.094,38.139,83.991,22.87,80.175,20.411z"/>
			<path fill="#FFE0A1" d="M88.951,32.544h1.879c0,0,0.881-0.073,1.211-0.808c0.33-0.734,0.44,0.808,0.697,0.808
				s0.661-0.844,0.184-1.578c-0.477-0.734-0.918-0.918-1.248-0.844c-0.33,0.073-0.771-0.287-1.285-0.015
				c-0.514,0.272-0.616-0.208-1.027,0.125c-0.411,0.333-1.505,0.808-1.505,0.808L88.951,32.544z"/>
			<path fill="#E84423" d="M81.233,24.548c0,0,0.653,2.147,1.46,3.119c0.808,0.972,2.415,1.742,2.415,1.742s3.849-0.401,3.876,3.133
				h-9.4L81.233,24.548z"/>
			<path fill="#FFE0A1" d="M64.516,11.89c0,0-0.701,0.248-0.248,1.071c0.453,0.825,0.783,1.34,0.783,1.433
				c0,0.093,0.227,0.587,0.577,0.237L64.516,11.89z"/>
			<path fill="#FFE0A1" d="M74.485,11.737c0,0,0.733,0.119,0.432,1.012c-0.301,0.891-0.535,1.457-0.518,1.549
				c0.016,0.092-0.119,0.618-0.527,0.335L74.485,11.737z"/>
			<path fill="#665A48" d="M66.875,17.015c0,0-4.006-6.754-2.748-8.943c0,0,0-0.28-0.466-0.559c0,0,0.606-0.233,0.884,0l0.093-0.652
				l0.629,0.186c0,0,3.703-3.68,7.616-0.466c0,0,1.024-0.062,1.18,0.746c0.155,0.808,1.397,2.578-0.839,9.689
				C73.225,17.015,69.809,15.059,66.875,17.015z"/>
		</g>
		<g>
			<rect x="45.039" y="34.9" fill="#9B7D54" width="24.981" height="6.988"/>
			<rect x="50.315" y="37.793" fill="#FEFEFE" width="14.43" height="1.202"/>
		</g>
		<g>
			<rect x="70.062" y="34.9" fill="#9B7D54" width="24.981" height="6.988"/>
			<rect x="75.337" y="37.793" fill="#FEFEFE" width="14.43" height="1.202"/>
		</g>
		<g>
			<rect x="37.041" y="32.544" fill="#665A48" width="65.959" height="2.356"/>
			<rect x="42.853" y="34.9" fill="#665A48" width="2.186" height="16.524"/>
			<rect x="95.042" y="34.9" fill="#665A48" width="2.186" height="16.524"/>
		</g>
		<g>
			<path fill="#FAD708" d="M81.843,31.265c-1.693-5.498-5.165-7.156-11.822-7.156c-6.657,0-10.129,1.658-11.822,7.156
				S61.556,57.6,61.556,57.6h8.465h8.465C78.485,57.599,83.536,36.763,81.843,31.265z"/>
			<path fill="#606264" d="M81.843,33.332c-1.693-5.498-5.165-7.156-11.822-7.156c-6.657,0-10.129,1.658-11.822,7.156
				s3.358,26.336,3.358,26.336h8.465h8.465C78.485,59.667,83.536,38.83,81.843,33.332z"/>
			<g>
				<g>
					<g>
						<path fill="#FAD708" d="M83.022,41.547c0,0.093,0.036,0.185,0.106,0.256c0.071,0.071,0.163,0.106,0.256,0.106h3.925
							c0.093,0,0.185-0.036,0.256-0.106c0.07-0.071,0.106-0.163,0.106-0.256v-0.724c0-0.093-0.036-0.185-0.106-0.256
							c-0.071-0.071-0.163-0.106-0.256-0.106h-3.925c-0.093,0-0.186,0.036-0.256,0.106c-0.07,0.071-0.106,0.163-0.106,0.256V41.547z
							"/>
						<path fill="#606264" d="M84.939,41.909c0,0-0.041,1.42-0.273,2.862c-0.232,1.442-1.276,5.843-1.276,5.843h2.071
							c0,0,1.044-4.402,1.276-5.843c0.232-1.442,0.273-2.862,0.273-2.862H84.939z"/>
						<path fill="#444444" d="M84.939,41.909h-1.33c0,0-0.041,1.42-0.273,2.862c-0.232,1.442-1.276,5.843-1.276,5.843h1.33
							c0,0,1.044-4.402,1.276-5.843C84.897,43.329,84.939,41.909,84.939,41.909z"/>
					</g>
				</g>
				<g>
					<g>
						<path fill="#FAD708" d="M57.019,41.547c0,0.093-0.036,0.185-0.106,0.256c-0.071,0.071-0.163,0.106-0.256,0.106h-3.925
							c-0.093,0-0.185-0.036-0.256-0.106c-0.07-0.071-0.106-0.163-0.106-0.256v-0.724c0-0.093,0.036-0.185,0.106-0.256
							c0.071-0.071,0.163-0.106,0.256-0.106h3.925c0.093,0,0.186,0.036,0.256,0.106c0.07,0.071,0.106,0.163,0.106,0.256V41.547z"/>
						<path fill="#606264" d="M55.101,41.909c0,0,0.041,1.42,0.273,2.862c0.232,1.442,1.276,5.843,1.276,5.843h-2.071
							c0,0-1.044-4.402-1.276-5.843c-0.232-1.442-0.273-2.862-0.273-2.862H55.101z"/>
						<path fill="#444444" d="M55.101,41.909h1.33c0,0,0.041,1.42,0.273,2.862c0.232,1.442,1.276,5.843,1.276,5.843h-1.33
							c0,0-1.044-4.402-1.276-5.843C55.143,43.329,55.101,41.909,55.101,41.909z"/>
					</g>
				</g>
			</g>
			<path fill="#444444" d="M75.466,33.365c-0.78-2.406-2.379-3.132-5.445-3.132s-4.666,0.725-5.445,3.132
				c-0.78,2.406-0.857,9.729,1.546,11.524c0.766,0.572,3.899,0,3.899,0s3.133,0.572,3.899,0
				C76.323,43.094,76.246,35.772,75.466,33.365z"/>
			<path fill="#FAD708" d="M75.052,34.412c-0.72-2.34-2.198-3.046-5.031-3.046s-4.311,0.705-5.031,3.046
				c-0.72,2.34-0.792,9.461,1.429,11.207c0.708,0.556,3.602,0,3.602,0s2.894,0.556,3.602,0
				C75.843,43.874,75.772,36.753,75.052,34.412z"/>
			<g>
				<ellipse fill="#444444" cx="70.02" cy="41.171" rx="3.955" ry="6.415"/>
				<g>
					<ellipse fill="#FAD708" cx="70.02" cy="47.055" rx="2.918" ry="0.82"/>
					<ellipse fill="#444444" cx="70.02" cy="47.875" rx="2.918" ry="0.82"/>
					<ellipse fill="#444444" cx="70.02" cy="48.695" rx="2.918" ry="0.82"/>
					<ellipse fill="#444444" cx="70.02" cy="49.515" rx="2.918" ry="0.82"/>
					<ellipse fill="#444444" cx="70.02" cy="50.334" rx="2.918" ry="0.82"/>
					<ellipse fill="#444444" cx="70.02" cy="51.155" rx="2.918" ry="0.82"/>
					<ellipse fill="#444444" cx="70.02" cy="51.975" rx="2.918" ry="0.82"/>
					<ellipse fill="#444444" cx="70.02" cy="52.795" rx="2.918" ry="0.82"/>
					<ellipse fill="#444444" cx="70.02" cy="53.614" rx="2.918" ry="0.82"/>
					<ellipse fill="#444444" cx="70.02" cy="54.434" rx="2.918" ry="0.82"/>
					<ellipse fill="#444444" cx="70.02" cy="55.254" rx="2.918" ry="0.82"/>
					<ellipse fill="#444444" cx="70.02" cy="56.075" rx="2.918" ry="0.82"/>
				</g>
			</g>
		</g>
	</g>
</g>
</svg>
