<?xml version="1.0" encoding="utf-8"?>
<!-- Generator: Adobe Illustrator 17.0.0, SVG Export Plug-In . SVG Version: 6.00 Build 0)  -->
<!DOCTYPE svg PUBLIC "-//W3C//DTD SVG 1.1//EN" "http://www.w3.org/Graphics/SVG/1.1/DTD/svg11.dtd">
<svg version="1.1" id="Layer_1" xmlns="http://www.w3.org/2000/svg" xmlns:xlink="http://www.w3.org/1999/xlink" x="0px" y="0px"
	 width="62px" height="52px" viewBox="0 0 62 52" enable-background="new 0 0 62 52" xml:space="preserve">
<g>
	<g>
		<path fill="#181819" d="M38.503,32.767c-0.036-0.416-0.808-0.388-0.808-0.388l-4.152,0.152c-0.028-0.124-0.18-0.649-0.18-0.649
			s2.795-0.014,3.972-0.097s1.054-0.723,1.054-0.723s0.137-5.289,0.109-6.3c-0.028-1.011-0.259-4.823-0.355-5.616
			c-0.096-0.793-0.096-1.79-0.888-2.077c-0.793-0.287-1.625-0.478-2.214-0.534c-0.587-0.055-5.302,0-7.216,0.327
			c-1.913,0.327-3.02,0.602-3.621,1.763c-0.602,1.162-0.957,1.066-0.957,1.066c-0.452,0.068-1.954,0.438-2.228,0.574
			c-0.274,0.136-0.711,0.642-0.821,1.094c-0.109,0.452,0.218,0.383,0.218,0.383c-0.614,1.243-0.784,2.993-0.784,2.993
			c-0.351,0.097-0.706,0.239-1.041,0.4v-1.837c0-0.114-0.092-0.207-0.207-0.207h-0.553c-0.114,0-0.207,0.092-0.207,0.207v2.313
			c0,0.019,0.004,0.036,0.007,0.054c-0.542,0.335-0.907,0.621-0.907,0.621c-0.489,0.439-0.817,0.928-1.036,1.406
			c0.311-0.39,0.79-0.579,2.38-0.608c1.95-0.035,3.691-0.174,5.607,0c1.915,0.174,1.533,1.127,1.533,1.747
			c0,0.621-0.383,3.336-0.766,4.277c-0.165,0.404-0.174,0.607-0.286,0.712c1.193,0.141,6.333-0.069,6.333-0.069
			c0.184-0.789,0.252-0.939,0.39-1.367c0.138-0.429,1.255-2.228,2.124-0.293c0.851,1.897,0.553,4.635,0.553,4.635
			c0.277-0.014,1.177-0.152,1.177-0.152s2.339-0.692,3.099-0.913c0.761-0.221,0.67-0.637,0.67-0.637S38.539,33.182,38.503,32.767z
			 M37.082,23.25c0,0,0.007-0.146,0.147-0.077c0.138,0.069,0.492,0.277,0.492,0.277s0.092,0.054,0.092,0.315s0,2.054,0,2.054
			s0.015,0.184-0.192,0.184s-0.3-0.027-0.392-0.062c-0.088-0.034-0.107-0.047-0.147-0.347C37.044,25.296,37.082,23.25,37.082,23.25z
			 M34.133,21.816c0.181,0.069,0.605,0.293,0.605,0.293s0.13,0.13,0.138,0.423c0.009,0.293,0,0.501,0,0.501h-0.899l0.001-0.327
			v-0.767C33.977,21.936,33.951,21.747,34.133,21.816z M30.319,32.569c-0.098,0.511-0.406,1.084-1.324,1.053
			c-0.918-0.03-4.147,0.301-3.824-0.467c0,0,0.143-0.602,1.212-0.821c1.068-0.218,3.47-0.241,3.47-0.241
			S30.417,32.057,30.319,32.569z M32.078,24.385c0,0-10.393-0.128-12.267,0.32c0,0,0.175-2.37,1.009-3.363
			c0,0,10.713-0.977,12.395-0.336C33.215,21.006,32.365,23.505,32.078,24.385z M32.816,25.976c-0.12-1.409,0.077-2.152,0.459-3.353
			c0.383-1.201,0.579-0.896,0.579-0.896l-0.065,2.979C33.788,26.657,32.816,25.976,32.816,25.976z"/>
		<path fill="#181819" d="M15.255,30.064c-0.591,0.36-0.964,1.155-1.196,1.899c0.243-0.002,1.059,0.015,1.217,0.372
			c0.187,0.421,0.13,0.918-0.141,0.978c-0.235,0.053-1.13-0.027-1.371-0.049c-0.032,0.206-0.044,0.333-0.044,0.333l2.203,0.044
			c-0.222-0.251-0.539-0.964-0.647-2.987C15.276,30.655,15.261,30.41,15.255,30.064z"/>
		<path fill="#181819" d="M38.795,24.762c0.028,1.011-0.109,6.3-0.109,6.3s0.032,0.166-0.092,0.34l1.065,0.021v-14.24l-1.746,0.106
			c0.435,0.421,0.449,1.206,0.527,1.854C38.536,19.939,38.767,23.751,38.795,24.762z"/>
		<path fill="#181819" d="M16.175,33.22h1.105c0.114,0,0.207-0.092,0.207-0.207v-4.649c0-0.114-0.092-0.207-0.207-0.207h-1.105
			c-0.114,0-0.207,0.092-0.207,0.207v4.649C15.969,33.127,16.061,33.22,16.175,33.22z"/>
		<path fill="#181819" d="M22.397,33.22h1.435c0.114,0,0.207-0.092,0.207-0.207v-4.649c0-0.114-0.092-0.207-0.207-0.207h-1.435
			c-0.114,0-0.207,0.092-0.207,0.207v4.649C22.191,33.127,22.284,33.22,22.397,33.22z"/>
		<path fill="#181819" d="M17.913,33.22h1.515c0.114,0,0.207-0.092,0.207-0.207v-4.649c0-0.114-0.092-0.207-0.207-0.207h-1.515
			c-0.114,0-0.207,0.092-0.207,0.207v4.649C17.706,33.127,17.798,33.22,17.913,33.22z"/>
		<path fill="#181819" d="M20.131,33.22h1.515c0.114,0,0.207-0.092,0.207-0.207v-4.649c0-0.114-0.092-0.207-0.207-0.207h-1.515
			c-0.114,0-0.207,0.092-0.207,0.207v4.649C19.924,33.127,20.018,33.22,20.131,33.22z"/>
		<path fill="#181819" d="M27.479,34.256c-0.492,0-7.622-0.165-9.775-0.237c-2.151-0.071-4.178-0.218-4.178-0.218
			c-0.091,0.437-0.055,2.924-0.055,2.924c0.169,0.104,0.897,0.192,1.806,0.264c0.258,1.8,1.138,3.126,2.185,3.126
			c1.002,0,1.853-1.218,2.148-2.904c0.198,0.006,0.312,0.01,0.312,0.01s6.391,0.182,7.301,0.182s1.583-0.109,1.583-0.109
			l1.584-0.085c-0.148-1.532,0.099-3.179,0.099-3.179C30.317,34.055,27.97,34.256,27.479,34.256z M16.008,35.534l1.229,0.055
			c0.13,0.006,0.23,0.116,0.223,0.244l-0.029,0.657c-0.006,0.13-0.116,0.23-0.244,0.223l-1.229-0.055
			c-0.13-0.006-0.23-0.116-0.223-0.244l0.029-0.657C15.769,35.628,15.88,35.527,16.008,35.534z M15.038,36.565l-0.692-0.04
			c-0.114-0.006-0.202-0.104-0.195-0.218l0.039-0.668c0.006-0.114,0.104-0.202,0.218-0.195l0.692,0.04
			c0.114,0.006,0.202,0.104,0.195,0.218l-0.039,0.668C15.249,36.483,15.152,36.571,15.038,36.565z M21.322,36.67
			c-0.004,0.13-0.112,0.231-0.241,0.229l-2.926-0.081c-0.13-0.004-0.232-0.112-0.229-0.241l0.02-0.71
			c0.004-0.13,0.112-0.232,0.241-0.229l2.926,0.081c0.13,0.004,0.232,0.112,0.229,0.241L21.322,36.67z M23.777,36.834
			c-0.004,0.147-0.125,0.264-0.273,0.259l-1.4-0.035c-0.147-0.004-0.264-0.125-0.259-0.273l0.019-0.748
			c0.004-0.147,0.125-0.264,0.273-0.259l1.4,0.035c0.147,0.004,0.264,0.125,0.259,0.273L23.777,36.834z M26.243,36.883
			c0,0.13-0.105,0.235-0.235,0.235h-1.273c-0.13,0-0.235-0.105-0.235-0.235v-0.757c0-0.13,0.105-0.235,0.235-0.235h1.273
			c0.13,0,0.235,0.105,0.235,0.235V36.883z"/>
		<ellipse fill="#181819" cx="31.974" cy="35.894" rx="1.344" ry="4.221"/>
		<ellipse fill="#181819" cx="40.004" cy="34.279" rx="0.574" ry="2.581"/>
		<ellipse fill="#181819" cx="41.301" cy="33.967" rx="0.517" ry="2.32"/>
		<ellipse fill="#181819" cx="46.459" cy="33.088" rx="0.229" ry="1.294"/>
		<ellipse fill="#181819" cx="46.922" cy="32.985" rx="0.132" ry="1.192"/>
		<polygon fill="#181819" points="39.916,17.183 39.916,31.422 48,31.699 48,24.881 		"/>
		<path fill="#181819" d="M42.161,33.754l3.89-0.838c0,0-0.014-0.17,0.006-0.353c0.014-0.132,0.037-0.311,0.037-0.311l-4.061,0.137
			C42.114,32.815,42.161,33.754,42.161,33.754z"/>
	</g>
	<path fill="#181819" d="M51.048,43.383H10.174V9.448h31.902l9.174-7.616H1V51h59.221V19.516l-9.174,7.617L51.048,43.383
		L51.048,43.383z"/>
</g>
</svg>
