<?xml version="1.0" encoding="utf-8"?>
<!-- Generator: Adobe Illustrator 17.0.0, SVG Export Plug-In . SVG Version: 6.00 Build 0)  -->
<!DOCTYPE svg PUBLIC "-//W3C//DTD SVG 1.1//EN" "http://www.w3.org/Graphics/SVG/1.1/DTD/svg11.dtd">
<svg version="1.1" id="Layer_1" xmlns="http://www.w3.org/2000/svg" xmlns:xlink="http://www.w3.org/1999/xlink" x="0px" y="0px"
	 width="63px" height="54px" viewBox="0 0 63 54" enable-background="new 0 0 63 54" xml:space="preserve">
<g>
	<path fill="#222222" d="M12.888,25.981l-2.07,3.84L6.258,51.939h4.822l4.166-25.958L12.888,25.981z"/>
	<path fill="#222222" d="M19.094,2h-2.539l-3.319,16.098h3.275L19.094,2z"/>
	<path fill="#222222" d="M47.776,25.981h-2.358l4.166,25.958h4.822l-4.561-22.118L47.776,25.981z"/>
	<path fill="#222222" d="M47.429,18.098L44.109,2H41.57l2.584,16.098L47.429,18.098z"/>
	<path fill="#222222" d="M28.609,16.578h3.446l0.072,1.52h8.019L37.564,2H23.101l-2.584,16.098h8.019L28.609,16.578z M29.278,2.573
		h2.109l0.334,7.003h-2.777L29.278,2.573z"/>
	<path fill="#222222" d="M19.252,25.981l-4.165,25.958h11.858l0.327-7.349h6.12l0.327,7.349h11.858l-4.165-25.958L19.252,25.981z
		 M27.606,37.586l0.334-7.003h4.784l0.335,7.003H27.606z"/>
	<path fill="#222222" d="M59.164,19.706H1.5v4.666h5.458l-1.939,9.86H7.08l5.315-9.86h35.874l5.315,9.86h2.061l-1.939-9.86h5.458
		v-4.666H59.164z"/>
</g>
</svg>
