<?xml version="1.0" encoding="utf-8"?>
<!-- Generator: Adobe Illustrator 17.0.0, SVG Export Plug-In . SVG Version: 6.00 Build 0)  -->
<!DOCTYPE svg PUBLIC "-//W3C//DTD SVG 1.1//EN" "http://www.w3.org/Graphics/SVG/1.1/DTD/svg11.dtd">
<svg version="1.1" id="Layer_1" xmlns="http://www.w3.org/2000/svg" xmlns:xlink="http://www.w3.org/1999/xlink" x="0px" y="0px"
	 width="117px" height="99.5px" viewBox="0 -36.5 117 99.5" enable-background="new 0 -36.5 117 99.5" xml:space="preserve">
<path fill="#231E22" d="M255.769,74.569"/>
<polygon fill="#261F24" points="26.195,-25.126 34.531,-29.515 52.79,-25.126 52.79,-0.081 34.928,-3.18 26.195,-0.081 "/>
<polygon fill="#231E22" points="39.742,10.246 51.894,0.693 35.161,-1.631 27.79,-0.34 27.79,1.726 37.352,10.246 37.352,13.086 
	39.742,13.086 "/>
<rect x="26.195" y="-3.182" fill="#231E22" width="1.793" height="49.314"/>
<rect x="33.168" y="-0.081" fill="#231E22" width="1.793" height="46.213"/>
<rect x="50.997" y="-5.248" fill="#231E22" width="1.793" height="51.379"/>
<polygon fill="#261F24" points="33.938,20.3 27.326,16.653 27.092,17.366 33.704,21.013 "/>
<polygon fill="#261F24" points="33.938,15.649 27.326,12.002 27.092,12.715 33.704,16.362 "/>
<polygon fill="#261F24" points="33.938,10.998 27.326,7.351 27.092,8.064 33.704,11.711 "/>
<polygon fill="#261F24" points="33.938,24.898 27.326,21.251 27.092,21.964 33.704,25.611 "/>
<polygon fill="#261F24" points="33.938,29.549 27.326,25.902 27.092,26.615 33.704,30.262 "/>
<polygon fill="#261F24" points="33.938,34.2 27.326,30.553 27.092,31.266 33.704,34.913 "/>
<polygon fill="#261F24" points="33.938,38.851 27.326,35.204 27.092,35.917 33.704,39.564 "/>
<polygon fill="#261F24" points="33.938,43.502 27.326,39.856 27.092,40.568 33.704,44.215 "/>
<rect x="0" y="46.132" fill="#231E22" width="116.624" height="9.816"/>
<path fill="#FFFFFF" stroke="#262225" stroke-miterlimit="10" d="M106.35,38.623c0,1.885-1.994,3.412-4.453,3.412H84.086
	c-2.459,0-4.453-1.528-4.453-3.412V-28.77c0-1.885,1.994-3.412,4.453-3.412h17.811c2.459,0,4.453,1.528,4.453,3.412V38.623z"/>
<path fill="none" stroke="#262225" stroke-miterlimit="2" d="M86.479-21.612c0.444,0.003,0.398-1.562,0.402-2.453l0.029-6.453
	c0.004-0.891-0.353-1.616-0.797-1.619l-2.557-0.02"/>
<path fill="none" stroke="#262225" stroke-miterlimit="2" d="M99.925-19.966c0.444,0.003,0.391-3.208,0.395-4.099l0.029-6.453
	c0.004-0.891-0.353-1.616-0.797-1.619l-3.203-0.025"/>
<polygon fill="#232123" points="81.151,-20.026 86.878,-23.512 93.153,-20.026 93.153,7.858 87.152,20.251 87.152,20.251 
	81.151,5.534 "/>
<polygon fill="#232123" points="94.349,-20.026 100.075,-23.512 106.35,-20.026 106.35,7.858 100.349,20.251 100.349,20.251 
	94.349,7.858 "/>
<polygon fill="#231E22" points="86.988,23.468 86.63,24.988 47.029,-19.135 47.762,-20.239 "/>
<polygon fill="#231E22" points="100.349,29.867 99.991,31.19 50.997,-23.14 51.73,-24.244 "/>
<polygon fill="#231E22" points="87.758,25.315 86.63,24.988 86.218,-1.183 87.341,-1.213 "/>
<polygon fill="#231E22" points="101.12,31.517 99.991,31.19 99.579,5.018 100.702,4.988 "/>
<rect x="79.633" y="32.733" fill="#231E22" width="26.232" height="23.215"/>
<polygon fill="#E4E6F4" points="84.625,37.677 88.36,43.293 97.474,43.293 101.358,37.677 "/>
<polygon fill="#261F24" points="7.257,26.957 29,-6.396 27.63,-7.895 5.888,25.457 "/>
<polygon fill="#261F24" points="6.801,10.069 27.79,-22.127 26.421,-23.627 5.432,8.57 "/>
<rect x="-12.599" y="26.633" transform="matrix(0.0019 1 -1 0.0019 33.8818 21.1144)" fill="#261F24" width="37.926" height="1.793"/>
<polygon fill="#E4E6F4" points="100.929,50.283 95.938,42.627 97.308,41.127 102.299,48.784 "/>
<polygon fill="#E4E6F4" points="85.346,50.283 90.337,42.627 88.968,41.127 83.976,48.784 "/>
<polygon fill="#E4E6F4" points="83.976,48.784 102.299,48.784 100.929,50.283 85.346,50.283 "/>
<g>
	<ellipse fill="#E4E6F4" cx="86.094" cy="50.283" rx="0.926" ry="1.2"/>
	<ellipse fill="#E4E6F4" cx="88.487" cy="50.283" rx="0.926" ry="1.2"/>
	<rect x="86.47" y="50.029" fill="#E4E6F4" width="2.943" height="0.508"/>
</g>
<g>
	<ellipse fill="#E4E6F4" cx="97.529" cy="50.435" rx="0.926" ry="1.2"/>
	<ellipse fill="#E4E6F4" cx="99.922" cy="50.435" rx="0.926" ry="1.2"/>
	<rect x="97.905" y="50.181" fill="#E4E6F4" width="2.943" height="0.508"/>
</g>
<path fill="#231E22" d="M48.179,22.546c0.176,0.504,0.525,0.696,0.897,0.874c0.935,0.447,1.863,0.917,2.793,1.379
	c0.128,0.064,0.252,0.137,0.407,0.222c-0.428,1.52-0.847,3.004-1.265,4.489c-0.029,0.103-0.097,0.217-0.08,0.305
	c0.041,0.216,0.12,0.419,0.185,0.627c0.152-0.108,0.391-0.171,0.442-0.333c0.333-1.061,0.626-2.143,0.931-3.219
	c0.121-0.427,0.211-0.875,0.374-1.273c0.08-0.195,0.305-0.427,0.445-0.408c0.158,0.022,0.317,0.285,0.434,0.485
	c0.12,0.204,0.157,0.494,0.286,0.683c0.482,0.713,0.977,1.413,1.488,2.09c0.204,0.27,0.29,0.547,0.277,0.918
	c-0.039,1.052-0.06,2.106-0.089,3.185c0.224,0.114,0.482,0.245,0.814,0.414c0-0.236,0-0.44,0-0.645c0-2.28-0.001-4.56-0.001-6.839
	c0-0.109-0.002-0.219,0.005-0.328c0.031-0.508,0.286-0.827,0.65-0.818c0.352,0.009,0.627,0.353,0.632,0.851
	c0.011,1.131,0.004,2.261,0.004,3.392c0,0.199,0,0.399,0,0.682c0.172,0,0.32,0,0.469,0c1.224,0,2.449,0.012,3.673-0.009
	c0.308-0.005,0.475,0.134,0.629,0.476c0.642,1.433,1.304,2.852,1.973,4.264c0.113,0.237,0.28,0.454,0.459,0.611
	c0.674,0.594,1.356,1.174,2.051,1.726c0.25,0.199,0.33,0.428,0.325,0.796c-0.016,1.164-0.006,2.329-0.006,3.519
	c0.169,0.028,0.303,0.051,0.464,0.078c0,1.029,0,2.058,0,3.08c-0.036,0.025-0.062,0.06-0.083,0.056
	c-0.605-0.126-0.893,0.201-1.167,0.945c-0.939,2.556-3.484,3.235-5.193,1.476c-0.598-0.616-0.762-0.925-1.261-2.405
	c-0.508,0-1.039-0.029-1.567,0.011c-0.325,0.025-0.54-0.107-0.684-0.471c-0.019-0.048-0.05-0.088-0.075-0.132
	c-0.846-1.478-0.846-1.484-2.267-1.363c-0.13,0.011-0.286,0.126-0.373,0.257c-0.237,0.359-0.472,0.731-0.655,1.138
	c-0.212,0.474-0.495,0.615-0.9,0.572c-0.405-0.043-0.815-0.01-1.248-0.01c-0.613,2.228-1.797,3.511-3.663,3.352
	c-1.595-0.136-2.593-1.382-3.105-3.327c-0.098-0.009-0.196-0.013-0.292-0.028c-0.355-0.057-0.556,0.059-0.702,0.571
	c-0.488,1.711-1.795,2.813-3.211,2.813c-1.395,0-2.678-1.095-3.181-2.803c-0.144-0.488-0.327-0.636-0.7-0.586
	c-0.305,0.041-0.616,0.008-0.956,0.008c0-1.059,0-2.087,0-3.159c0.107-0.019,0.224-0.041,0.377-0.069c0-1.092,0-2.161,0-3.292
	c0.571,0,1.102,0.003,1.634-0.002c0.126-0.001,0.276,0.022,0.369-0.057c0.096-0.082,0.21-0.305,0.184-0.411
	c-0.037-0.146-0.187-0.316-0.307-0.341c-0.243-0.053-0.497-0.016-0.801-0.016c0.079-1.055,0.152-2.047,0.229-3.037
	c0.034-0.435,0.095-0.868,0.104-1.303c0.003-0.164-0.075-0.382-0.172-0.488c-0.528-0.573-1.069-1.129-1.618-1.668
	c-0.207-0.204-0.318-0.416-0.305-0.77c0.079-2.099,0.532-4.043,1.403-5.819c0.233-0.475,0.529-0.699,1.007-0.692
	c2.533,0.037,5.066,0.017,7.599,0.017c0.153,0,0.307,0,0.522,0c-0.06,0.254-0.101,0.456-0.156,0.652
	c-0.343,1.213-0.688,2.424-1.034,3.636c-0.087,0.306-0.166,0.642,0.133,0.794c0.328,0.166,0.432-0.171,0.525-0.501
	c0.388-1.384,0.777-2.769,1.181-4.146c0.071-0.244,0.214-0.452,0.323-0.677C47.897,22.546,48.038,22.546,48.179,22.546z
	 M48.964,40.686c-0.884,0.004-1.613,0.942-1.617,2.08c-0.004,1.147,0.748,2.116,1.643,2.115c0.867-0.001,1.608-0.959,1.617-2.093
	C50.615,41.63,49.874,40.681,48.964,40.686z M39.8,42.747c-0.008,1.164,0.685,2.103,1.569,2.125c0.904,0.023,1.65-0.908,1.661-2.07
	c0.01-1.154-0.692-2.097-1.577-2.117C40.527,40.664,39.808,41.562,39.8,42.747z M61.925,42.779c0.002,1.16,0.709,2.087,1.594,2.092
	c0.908,0.005,1.635-0.931,1.633-2.103c-0.002-1.159-0.706-2.075-1.6-2.082C62.629,40.679,61.922,41.587,61.925,42.779z
	 M60.02,34.324c1.182,0,2.332,0,3.523,0c-0.562-1.217-1.091-2.373-1.632-3.519c-0.056-0.118-0.184-0.248-0.282-0.252
	C61.1,30.527,60.57,30.54,60.02,30.54C60.02,31.829,60.02,33.06,60.02,34.324z M42.493,36.134c-0.487-0.497-0.96-0.98-1.513-1.545
	c0.073,0.857,0.125,1.561,0.199,2.261c0.018,0.169,0.113,0.462,0.169,0.461c0.218-0.005,0.491-0.023,0.638-0.191
	C42.196,36.878,42.313,36.5,42.493,36.134z"/>
</svg>
